<?xml version="1.0" encoding="UTF-8"?>
<svg version="1.1" xmlns="http://www.w3.org/2000/svg" width="225" height="225">
<path d="M0 0 C74.25 0 148.5 0 225 0 C225 74.25 225 148.5 225 225 C150.75 225 76.5 225 0 225 C0 150.75 0 76.5 0 0 Z " fill="#ED8226" transform="translate(0,0)"/>
<path d="M0 0 C34.32 0 68.64 0 104 0 C104 0.33 104 0.66 104 1 C102.82566406 1.14695313 101.65132813 1.29390625 100.44140625 1.4453125 C76.64261902 4.65867188 56.50136842 13.69672527 38 29 C37.14277344 29.65871094 36.28554688 30.31742188 35.40234375 30.99609375 C14.74139687 48.230347 3.75845806 78.02108898 1 104 C1.54011719 104.23976563 2.08023437 104.47953125 2.63671875 104.7265625 C5.61748343 106.33272661 8.13841996 108.29628118 10.8125 110.375 C11.37799561 110.81054199 11.94349121 111.24608398 12.52612305 111.69482422 C15.61304142 114.08521365 18.64414716 116.52535616 21.625 119.046875 C33.35766278 128.90875087 44.75894147 137.43406298 60.71484375 136.4609375 C67.78645667 135.46872546 72.84178613 133.04859422 78 128 C80.05651389 125.19310721 80.05651389 125.19310721 81.75 122 C82.07798584 121.41114014 82.40597168 120.82228027 82.74389648 120.21557617 C85.75543782 114.69640278 88.39754485 109.00455408 91.0625 103.3125 C95.71364737 93.40017555 100.19494614 84.69083655 108.125 77 C110.48582044 74.65397092 110.48582044 74.65397092 112 72 C111.88912097 68.87321136 111.12035008 66.58786766 110 63.67578125 C108.53054984 59.74385405 108.2733812 56.1285159 109 52 C110.5625 48.875 110.5625 48.875 113 47 C116.25 46.6875 116.25 46.6875 120 48 C121.18355246 49.29996745 122.32584571 50.63803945 123.4375 52 C126.70509369 55.6135742 129.05907303 56.46096598 133.92797852 56.72265625 C135.3189996 56.74047558 136.71061445 56.73385729 138.10131836 56.69921875 C141.94692775 56.64654561 143.85942576 56.91124605 147.15380859 58.99121094 C151.52300719 61.59834098 155.45547421 61.53578935 160.44140625 61.46875 C161.770261 61.47932434 161.770261 61.47932434 163.1259613 61.4901123 C165.93843892 61.51204594 168.74996245 61.50916529 171.5625 61.5 C175.27264766 61.48793241 178.98138215 61.50169562 182.69140625 61.53125 C183.53530411 61.51993042 184.37920197 61.50861084 185.24867249 61.49694824 C191.59237693 61.55108067 195.20751041 63.27911271 199.828125 67.78125 C200.29734375 68.3484375 200.7665625 68.915625 201.25 69.5 C201.72953125 70.0671875 202.2090625 70.634375 202.703125 71.21875 C205.24821154 74.71441104 206.26750197 77.27580173 206.1875 81.625 C206.17783203 82.78902344 206.17783203 82.78902344 206.16796875 83.9765625 C206 86 206 86 205 88 C197.61524538 90.76906604 189.63393251 91.86159516 181.875 93.0625 C162.35525133 95.49567137 162.35525133 95.49567137 146.87890625 106.66015625 C144.67833711 110.35217142 142.81151038 114.10545002 141 118 C140.55156738 118.9497168 140.10313477 119.89943359 139.64111328 120.87792969 C135.59207299 129.47796845 131.64156225 138.12301203 127.74462891 146.79296875 C116.56373317 171.62479431 100.67193029 196.76361725 74.76171875 208 C70.59074041 209.51028353 66.38201152 210.36313499 62 211 C65.42737467 213.92283729 69.19838366 215.45851688 73.375 217 C74.0774585 217.26127686 74.77991699 217.52255371 75.50366211 217.79174805 C84.45579492 221.01660875 93.58338904 222.70566129 103 224 C103 224.33 103 224.66 103 225 C69.01 225 35.02 225 0 225 C0 150.75 0 76.5 0 0 Z " fill="#FEFEFD" transform="translate(0,0)"/>
<path d="M0 0 C1.89138076 1.57064501 1.89138076 1.57064501 4.83203125 2.375 C4.83203125 3.035 4.83203125 3.695 4.83203125 4.375 C5.4146875 4.643125 5.99734375 4.91125 6.59765625 5.1875 C8.85989726 6.38980991 10.63779443 7.71325913 12.58203125 9.375 C13.195625 9.890625 13.80921875 10.40625 14.44140625 10.9375 C15.83203125 12.375 15.83203125 12.375 15.83203125 14.375 C16.63640625 14.7153125 16.63640625 14.7153125 17.45703125 15.0625 C20.65663286 16.83070089 23.12240348 18.91170203 25.83203125 21.375 C25.83203125 22.035 25.83203125 22.695 25.83203125 23.375 C26.49203125 23.375 27.15203125 23.375 27.83203125 23.375 C27.83203125 24.035 27.83203125 24.695 27.83203125 25.375 C28.82203125 25.705 29.81203125 26.035 30.83203125 26.375 C31.51953125 28.4375 31.51953125 28.4375 31.83203125 30.375 C32.49203125 30.375 33.15203125 30.375 33.83203125 30.375 C39.53562781 36.35682078 39.53562781 36.35682078 39.83203125 41.375 C39.13907315 44.41590861 38.07293396 47.27878765 36.95703125 50.1875 C36.48209229 51.44240234 36.48209229 51.44240234 35.99755859 52.72265625 C30.94611988 65.62618619 24.24665954 77.15130209 14.83203125 87.375 C14.3525 87.89690918 13.87296875 88.41881836 13.37890625 88.95654297 C-5.05760191 108.7955759 -27.62365916 119.97430665 -54.16796875 124.375 C-55.61623047 124.65537109 -55.61623047 124.65537109 -57.09375 124.94140625 C-78.52470345 127.96406932 -103.40491022 123.20870701 -122.16796875 112.375 C-119.71017878 109.91721003 -118.29705186 109.86060613 -114.91796875 109.1875 C-92.31071134 103.67748744 -77.90749923 86.80756354 -65.85546875 67.875 C-57.98187124 54.71437937 -52.11527943 40.21865533 -45.7578125 26.28417969 C-44.56902575 23.6857536 -43.36956161 21.0925212 -42.16796875 18.5 C-41.68070313 17.4157373 -41.68070313 17.4157373 -41.18359375 16.30957031 C-36.619485 6.48457802 -31.23434814 0.63923016 -21.16796875 -3.625 C-12.50265249 -6.56308379 -7.10647203 -5.83095141 0 0 Z " fill="#F39324" transform="translate(182.16796875,99.625)"/>
<path d="M0 0 C3.78583487 2.37485653 6.89124067 5.32492422 10.109375 8.41015625 C10.76873047 9.02697266 11.42808594 9.64378906 12.10742188 10.27929688 C19.56365971 17.33087457 19.56365971 17.33087457 21.546875 20.59765625 C20.98891263 27.04067125 18.08843407 32.35158859 15.30175781 38.09155273 C14.4323537 39.88849814 13.58322194 41.69520599 12.734375 43.50195312 C7.94865293 53.44280208 2.9417114 62.79674212 -7.453125 67.59765625 C-16.49454581 70.53368752 -26.00892695 69.57516136 -34.390625 65.41015625 C-42.59651975 61.0908936 -49.55517147 55.20410711 -56.55078125 49.18261719 C-59.74861719 46.5183011 -63.09581397 44.05608144 -66.453125 41.59765625 C-57.36939413 32.19782485 -46.34451663 24.92816412 -35.40771484 17.86083984 C-34.092877 17.01110577 -32.78073735 16.15718353 -31.47119141 15.29931641 C-24.27127825 10.59026008 -16.99741722 6.13611972 -9.265625 2.34765625 C-8.65396484 2.03546143 -8.04230469 1.7232666 -7.41210938 1.40161133 C-4.75677519 0.15942113 -2.92132151 -0.47913394 0 0 Z " fill="#5B3411" transform="translate(75.453125,68.40234375)"/>
<path d="M0 0 C0.33 0 0.66 0 1 0 C1 33.99 1 67.98 1 103 C-32.99 103 -66.98 103 -102 103 C-102 102.67 -102 102.34 -102 102 C-101.175 101.91363281 -100.35 101.82726562 -99.5 101.73828125 C-70.0100134 98.15077172 -42.50173108 83.61978545 -23.70507812 60.40039062 C-9.71231127 42.01949209 -2.83145507 22.62680323 0 0 Z " fill="#FEFEFD" transform="translate(224,122)"/>
<path d="M0 0 C34.65 0 69.3 0 105 0 C105 33 105 66 105 100 C103.42801642 96.85603285 102.63198373 94.88634281 101.95703125 91.578125 C97.48092644 70.70409611 89.69079589 54.5344944 76 38 C75.236875 36.989375 74.47375 35.97875 73.6875 34.9375 C54.79556656 14.2881774 27.38705781 3.44007031 0 1 C0 0.67 0 0.34 0 0 Z " fill="#FDFEFD" transform="translate(120,0)"/>
<path d="M0 0 C0.33 0 0.66 0 1 0 C1.34308668 13.38565877 1.32231352 25.94995251 -2 39 C-2.17692383 39.70350586 -2.35384766 40.40701172 -2.53613281 41.13183594 C-4.9952078 50.71755657 -8.14291901 59.33737102 -13 68 C-30.8451994 69.01810963 -47.15760195 64.09722567 -63 56 C-60.54221003 53.54221003 -59.12908311 53.48560613 -55.75 52.8125 C-33.47081712 47.38244826 -18.67667259 30.79547046 -7.13378906 11.82348633 C-6.00015087 9.91781738 -4.88350169 8.00375954 -3.77734375 6.08203125 C-2.58512268 4.01464131 -1.3238048 1.9857072 0 0 Z " fill="#5C3513" transform="translate(123,156)"/>
<path d="M0 0 C0 0.66 0 1.32 0 2 C0.99 2.495 0.99 2.495 2 3 C1.01 3 0.02 3 -1 3 C-2.155 3.020625 -3.31 3.04125 -4.5 3.0625 C-8 3 -8 3 -11 2 C-11.33 2.99 -11.66 3.98 -12 5 C-13.32 5 -14.64 5 -16 5 C-16 4.34 -16 3.68 -16 3 C-16.56460938 3.16371094 -17.12921875 3.32742188 -17.7109375 3.49609375 C-20.10481612 4.02307386 -22.17713954 4.09838069 -24.625 4.0625 C-25.49640625 4.05476562 -26.3678125 4.04703125 -27.265625 4.0390625 C-29.08854167 4.01302083 -30.91145833 3.98697917 -32.734375 3.9609375 C-33.60578125 3.95320312 -34.4771875 3.94546875 -35.375 3.9375 C-36.16648437 3.92589844 -36.95796875 3.91429687 -37.7734375 3.90234375 C-39.99471798 3.99976833 -41.85697017 4.43603067 -44 5 C-47.47345609 5.25338282 -50.94162831 5.44113992 -54.41992188 5.60546875 C-58.01098053 5.47601838 -58.01098053 5.47601838 -61 7 C-62.99958364 7.04080783 -65.00045254 7.04254356 -67 7 C-67 6.34 -67 5.68 -67 5 C-66.195625 4.87625 -65.39125 4.7525 -64.5625 4.625 C-63.716875 4.41875 -62.87125 4.2125 -62 4 C-61.67 3.34 -61.34 2.68 -61 2 C-62.0725 2.309375 -63.145 2.61875 -64.25 2.9375 C-66.82866222 3.66812096 -69.39512102 4.37482904 -72 5 C-71.67 5.66 -71.34 6.32 -71 7 C-73.81068981 8.53600055 -76.29318177 9.36531037 -79.4375 9.9375 C-84.01213647 10.89742372 -87.16940113 12.59654087 -90.875 15.4375 C-93.80743616 17.59370306 -96.76380353 19.3219722 -100 21 C-100.66 20.67 -101.32 20.34 -102 20 C-75.44396719 -1.04981434 -32.74495899 -15.00810621 0 0 Z " fill="#EA7827" transform="translate(144,5)"/>
<path d="M0 0 C0.66 0 1.32 0 2 0 C2 0.66 2 1.32 2 2 C2.969375 1.98839844 3.93875 1.97679688 4.9375 1.96484375 C14.66831329 1.88652735 24.2970481 2.27743975 34 3 C34.6875 5.30078125 34.6875 5.30078125 35 8 C33.8125 9.66796875 33.8125 9.66796875 32 11.1875 C27.5238292 15.26897838 24.33188099 19.97140916 21 25 C20.34 25.99 19.68 26.98 19 28 C18.59136719 27.27554688 18.18273437 26.55109375 17.76171875 25.8046875 C13.26526232 18.6462491 7.02384724 12.70118095 0.43359375 7.47265625 C-1 6 -1 6 -1 3 C-0.34 3 0.32 3 1 3 C0.67 2.01 0.34 1.02 0 0 Z " fill="#F6A122" transform="translate(78,64)"/>
<path d="M0 0 C0.33 0 0.66 0 1 0 C1.0543965 2.37531394 1.09385864 4.74935883 1.125 7.125 C1.14175781 7.79015625 1.15851563 8.4553125 1.17578125 9.140625 C1.21847278 13.49516056 0.59996217 16.95600114 -1 21 C-0.34 21.66 0.32 22.32 1 23 C0.690625 23.66 0.38125 24.32 0.0625 25 C-1.24960255 28.70476015 -1.60264135 32.09263991 -2 36 C-1.4225 35.855625 -0.845 35.71125 -0.25 35.5625 C1.83333333 35.04166667 3.91666667 34.52083333 6 34 C6.33 32.35 6.66 30.7 7 29 C12.02254631 28.7045561 14.89542386 29.01485372 19 32 C19 31.34 19 30.68 19 30 C19.99 30 20.98 30 22 30 C21.7215625 28.6078125 21.7215625 28.6078125 21.4375 27.1875 C21 24 21 24 22 21 C22.99 21.33 23.98 21.66 25 22 C25 22.33 25 22.66 25 23 C28.62885324 23.15149298 28.62885324 23.15149298 32 22 C32 22.66 32 23.32 32 24 C32.680625 23.67 33.36125 23.34 34.0625 23 C37.50840238 21.82692685 40.38397422 21.85819507 44 22 C44.495 23.485 44.495 23.485 45 25 C32.13528003 31.73545548 20.23102941 35.64068467 6 38 C5.05511719 38.19078125 4.11023438 38.3815625 3.13671875 38.578125 C-1.21024048 39.16277207 -5.49503515 39.10537616 -9.875 39.0625 C-10.75414063 39.05798828 -11.63328125 39.05347656 -12.5390625 39.04882812 C-14.69273803 39.03712337 -16.84637817 39.01919069 -19 39 C-19 38.67 -19 38.34 -19 38 C-17.90945312 37.94714844 -16.81890625 37.89429688 -15.6953125 37.83984375 C-11.9132601 37.38736985 -11.9132601 37.38736985 -10.1796875 34.69140625 C-5.53844168 23.56075386 -1.76329985 11.96389469 0 0 Z " fill="#E87928" transform="translate(122,186)"/>
<path d="M0 0 C0 0.33 0 0.66 0 1 C-0.61407715 1.02505615 -1.2281543 1.0501123 -1.86083984 1.07592773 C-4.69902634 1.19345264 -7.5370044 1.31545526 -10.375 1.4375 C-11.82326172 1.49647461 -11.82326172 1.49647461 -13.30078125 1.55664062 C-18.85382475 1.79888749 -24.34685372 2.18786876 -29.8671875 2.84375 C-32.69164977 3.05067031 -35.25408739 2.65034772 -38 2 C-38.33 3.32 -38.66 4.64 -39 6 C-34.71 6.33 -30.42 6.66 -26 7 C-30.25926559 9.1296328 -33.55790068 9.39377682 -38.1875 9.5625 C-42.97680804 9.3322347 -42.97680804 9.3322347 -47 11 C-48.99958364 11.04080783 -51.00045254 11.04254356 -53 11 C-53 10.34 -53 9.68 -53 9 C-52.195625 8.87625 -51.39125 8.7525 -50.5625 8.625 C-49.716875 8.41875 -48.87125 8.2125 -48 8 C-47.67 7.34 -47.34 6.68 -47 6 C-48.0725 6.309375 -49.145 6.61875 -50.25 6.9375 C-52.82866222 7.66812096 -55.39512102 8.37482904 -58 9 C-57.67 9.66 -57.34 10.32 -57 11 C-59.81068981 12.53600055 -62.29318177 13.36531037 -65.4375 13.9375 C-70.01213647 14.89742372 -73.16940113 16.59654087 -76.875 19.4375 C-79.80743616 21.59370306 -82.76380353 23.3219722 -86 25 C-86.66 24.67 -87.32 24.34 -88 24 C-62.59162028 3.85988044 -32.12776844 -4.32489191 0 0 Z " fill="#E57827" transform="translate(130,1)"/>
<path d="M0 0 C2.475 0.495 2.475 0.495 5 1 C5.33 2.32 5.66 3.64 6 5 C6.66 5 7.32 5 8 5 C13.73550495 11.01528568 13.73550495 11.01528568 14 16 C13.21386006 19.18388586 12.06361468 22.19691501 10.875 25.25 C10.5545874 26.09667236 10.2341748 26.94334473 9.90405273 27.81567383 C7.70379202 33.51043396 5.23305148 38.80752338 2 44 C1.0983142 40.91566208 0.86531951 38.14658179 0.875 34.9375 C0.87242187 34.08027344 0.86984375 33.22304687 0.8671875 32.33984375 C1 30 1 30 2 27 C2.03874921 25.33378384 2.0450286 23.66605828 2 22 C2.99 22.66 3.98 23.32 5 24 C5.12375 23.360625 5.2475 22.72125 5.375 22.0625 C5.58125 21.381875 5.7875 20.70125 6 20 C6.66 19.67 7.32 19.34 8 19 C6.83962234 11.91369345 6.83962234 11.91369345 3 6 C2.67 7.65 2.34 9.3 2 11 C1.34 11 0.68 11 0 11 C0 7.37 0 3.74 0 0 Z " fill="#F5A425" transform="translate(208,125)"/>
<path d="M0 0 C2.31 0 4.62 0 7 0 C7.495 1.485 7.495 1.485 8 3 C7.43079834 3.39791748 6.86159668 3.79583496 6.27514648 4.20581055 C3.66234316 6.03267669 1.04991914 7.86008452 -1.5625 9.6875 C-2.90538086 10.62625977 -2.90538086 10.62625977 -4.27539062 11.58398438 C-5.15517578 12.19951172 -6.03496094 12.81503906 -6.94140625 13.44921875 C-7.80515869 14.05145264 -8.66891113 14.65368652 -9.55883789 15.27416992 C-11.0900246 16.35667406 -12.60957642 17.45603676 -14.11108398 18.5793457 C-18.70938073 22.01855017 -18.70938073 22.01855017 -21.9375 21.8125 C-22.618125 21.544375 -23.29875 21.27625 -24 21 C-24.33 21.66 -24.66 22.32 -25 23 C-26 22 -26 22 -26.0625 18.9375 C-26.041875 17.968125 -26.02125 16.99875 -26 16 C-25.01 15.67 -24.02 15.34 -23 15 C-23 13.35 -23 11.7 -23 10 C-22.34 10 -21.68 10 -21 10 C-21 8.02 -21 6.04 -21 4 C-20.34 4 -19.68 4 -19 4 C-19 7.3 -19 10.6 -19 14 C-17.35232753 13.71890887 -15.70686855 13.42481474 -14.0625 13.125 C-12.68771484 12.88136719 -12.68771484 12.88136719 -11.28515625 12.6328125 C-10.53105469 12.42398438 -9.77695312 12.21515625 -9 12 C-8.67 11.34 -8.34 10.68 -8 10 C-8.99 9.67 -9.98 9.34 -11 9 C-11 8.01 -11 7.02 -11 6 C-9.5437455 5.32880451 -8.08492133 4.66318193 -6.625 4 C-5.81289063 3.62875 -5.00078125 3.2575 -4.1640625 2.875 C-2 2 -2 2 0 2 C0 1.34 0 0.68 0 0 Z " fill="#EF911F" transform="translate(35,82)"/>
<path d="M0 0 C0.33 0 0.66 0 1 0 C1.0543965 2.37531394 1.09385864 4.74935883 1.125 7.125 C1.14175781 7.79015625 1.15851563 8.4553125 1.17578125 9.140625 C1.21847278 13.49516056 0.59996217 16.95600114 -1 21 C-0.34 21.66 0.32 22.32 1 23 C0.690625 23.66 0.38125 24.32 0.0625 25 C-1.24960255 28.70476015 -1.60264135 32.09263991 -2 36 C-1.44183594 35.83371094 -0.88367188 35.66742188 -0.30859375 35.49609375 C2.20454576 34.95604516 4.37232149 34.97159229 6.9375 35.0625 C10.85430613 35.11993117 13.38897412 34.54758252 17 33 C19.8125 33.375 19.8125 33.375 22 34 C22 34.33 22 34.66 22 35 C19.45847565 35.47993156 16.91678778 35.95896727 14.375 36.4375 C13.66214844 36.57220703 12.94929688 36.70691406 12.21484375 36.84570312 C10.79601807 37.11254649 9.37657739 37.37614039 7.95654297 37.63647461 C6.3323006 37.9382586 4.71235608 38.26306704 3.09375 38.59375 C-1.23735243 39.16248062 -5.51253605 39.10520484 -9.875 39.0625 C-10.75414063 39.05798828 -11.63328125 39.05347656 -12.5390625 39.04882812 C-14.69273803 39.03712337 -16.84637817 39.01919069 -19 39 C-19 38.67 -19 38.34 -19 38 C-17.90945312 37.94714844 -16.81890625 37.89429688 -15.6953125 37.83984375 C-11.9132601 37.38736985 -11.9132601 37.38736985 -10.1796875 34.69140625 C-5.53844168 23.56075386 -1.76329985 11.96389469 0 0 Z " fill="#E77D2A" transform="translate(122,186)"/>
<path d="M0 0 C1.20914063 0.47050781 2.41828125 0.94101563 3.6640625 1.42578125 C15.71703153 6.03892048 27.17862861 9.22820245 40 11 C40 11.33 40 11.66 40 12 C27.46 12 14.92 12 2 12 C1.19955576 7.99777881 0.55450162 4.03994039 0 0 Z " fill="#F9F8F5" transform="translate(63,213)"/>
<path d="M0 0 C0.33 0.66 0.66 1.32 1 2 C0.0625 4.125 0.0625 4.125 -1 6 C-0.01 6.33 0.98 6.66 2 7 C1.01 7.495 1.01 7.495 0 8 C-0.99 7.67 -1.98 7.34 -3 7 C-3.33 9.31 -3.66 11.62 -4 14 C-3.34 14.33 -2.68 14.66 -2 15 C-1.7525 14.21625 -1.505 13.4325 -1.25 12.625 C0.15389099 9.67682892 1.00675737 9.0975223 4 8 C2.87548273 10.9719385 1.77706209 13.33440687 0 16 C-0.66 16 -1.32 16 -2 16 C-2.12375 16.5775 -2.2475 17.155 -2.375 17.75 C-3.56143742 22.0211747 -4.63803329 23.97448435 -8.5 26.25 C-12 28 -12 28 -14 28 C-14.33 28.99 -14.66 29.98 -15 31 C-15.99 31.33 -16.98 31.66 -18 32 C-14.33365867 20.11538633 -7.20566859 9.98336396 0 0 Z " fill="#E77923" transform="translate(26,40)"/>
<path d="M0 0 C2.55282245 4.25470408 3.40914166 8.80086356 2.5 13.6875 C1.84437457 18.03101849 2.36756304 22.04000777 2.84375 26.390625 C3 29 3 29 2 31 C1.90279573 32.93550864 1.87022086 34.87455792 1.875 36.8125 C1.87242188 37.85019531 1.86984375 38.88789063 1.8671875 39.95703125 C1.98923825 42.75342942 2.36636645 45.27939879 3 48 C1.68 48.66 0.36 49.32 -1 50 C-2.55084642 48.44915358 -2.13478836 46.9767425 -2.14526367 44.8190918 C-2.15164352 43.93114426 -2.15802338 43.04319672 -2.16459656 42.12834167 C-2.16570938 41.16173111 -2.1668222 40.19512054 -2.16796875 39.19921875 C-2.17129715 38.21129837 -2.17462555 37.22337799 -2.17805481 36.20552063 C-2.18312935 34.10975613 -2.18546297 32.01398352 -2.18530273 29.91821289 C-2.1874836 26.71161524 -2.20561827 23.50536457 -2.22460938 20.29882812 C-2.2275443 18.26562618 -2.22952843 16.2324226 -2.23046875 14.19921875 C-2.23765427 13.23868088 -2.24483978 12.27814301 -2.25224304 11.28849792 C-2.24916641 10.3910939 -2.24608978 9.49368988 -2.24291992 8.5690918 C-2.24434494 7.78157028 -2.24576996 6.99404877 -2.24723816 6.18266296 C-1.97117538 3.74553107 -1.21425702 2.11385438 0 0 Z " fill="#E9862F" transform="translate(125,151)"/>
<path d="M0 0 C-0.66 0 -1.32 0 -2 0 C-2 0.66 -2 1.32 -2 2 C-3.65 2 -5.3 2 -7 2 C-6.67 3.65 -6.34 5.3 -6 7 C-6.66 7 -7.32 7 -8 7 C-8.33 6.34 -8.66 5.68 -9 5 C-11.0162233 5.71563266 -11.0162233 5.71563266 -13 7 C-13.96569331 9.49470772 -14 11.29745539 -14 14 C-14.99 15.485 -14.99 15.485 -16 17 C-17.32 16.67 -18.64 16.34 -20 16 C-20 15.34 -20 14.68 -20 14 C-20.86625 14.2784375 -20.86625 14.2784375 -21.75 14.5625 C-24.20692525 15.04023546 -25.64397534 14.75729364 -28 14 C-27.35781228 11.19042871 -26.56714519 9.43714786 -24.26171875 7.66015625 C-22.20251051 6.3843003 -20.11133295 5.18711133 -18 4 C-17.195625 3.443125 -16.39125 2.88625 -15.5625 2.3125 C-10.63964603 -0.20896179 -5.37762518 -1.7071826 0 0 Z " fill="#F1AA27" transform="translate(174,95)"/>
<path d="M0 0 C-5.75 4 -5.75 4 -8 4 C-8 4.66 -8 5.32 -8 6 C-8.99 6 -9.98 6 -11 6 C-11.268125 6.5775 -11.53625 7.155 -11.8125 7.75 C-12.204375 8.4925 -12.59625 9.235 -13 10 C-13.350625 10.763125 -13.70125 11.52625 -14.0625 12.3125 C-16 14 -16 14 -18.0546875 13.9921875 C-19.62455022 13.79145095 -21.18969858 13.54876964 -22.74609375 13.26171875 C-25.1253474 12.98544493 -26.73354586 13.28237557 -29 14 C-25.29269187 8.649526 -21.43654076 3.69908959 -16 0 C-15.34 0 -14.68 0 -14 0 C-13.67 0.66 -13.34 1.32 -13 2 C-12.01 1.34 -11.02 0.68 -10 0 C-3.70786517 -1.23595506 -3.70786517 -1.23595506 0 0 Z " fill="#EA7928" transform="translate(56,26)"/>
<path d="M0 0 C0.66 0.33 1.32 0.66 2 1 C-2.48116857 5.96854642 -7.27134199 10.12891044 -12.75 13.9375 C-13.30453857 14.32671631 -13.85907715 14.71593262 -14.43041992 15.11694336 C-17.21941021 17.01123264 -19.63819457 18.48593752 -23 19 C-21.25 12.25 -21.25 12.25 -19 10 C-16 9 -16 9 -14 9 C-14.226875 8.236875 -14.45375 7.47375 -14.6875 6.6875 C-15 4 -15 4 -14 2.125 C-10.94804023 0.40827263 -8.38686409 1.47445212 -5 2 C-2.26225382 1.07254351 -2.26225382 1.07254351 0 0 Z " fill="#F08325" transform="translate(190,191)"/>
<path d="M0 0 C0.66 1.32 1.32 2.64 2 4 C2.99 3.67 3.98 3.34 5 3 C5.37344442 9.97096259 4.14584821 14.70830358 1 21 C0.34 21 -0.32 21 -1 21 C-1.33 20.34 -1.66 19.68 -2 19 C-3.73956658 20.73956658 -3.37190386 23.1936622 -3.5625 25.5625 C-3.64628906 26.57441406 -3.73007812 27.58632812 -3.81640625 28.62890625 C-3.87699219 29.41136719 -3.93757812 30.19382812 -4 31 C-4.66 31 -5.32 31 -6 31 C-6.63952425 20.34126257 -3.60125984 9.94633671 0 0 Z " fill="#EA7D2C" transform="translate(7,73)"/>
<path d="M0 0 C0.66 0.99 1.32 1.98 2 3 C0.54465111 6.32118079 -1.31993659 8.5710233 -3.8125 11.1875 C-7.69691043 15.44690816 -10.46366385 19.84197023 -13 25 C-16.45101522 20.75259665 -19.73279209 16.38894929 -23 12 C-18.99153975 13.37432923 -16.23577676 15.2889438 -13 18 C-12.34 18.33 -11.68 18.66 -11 19 C-11.66 17.02 -12.32 15.04 -13 13 C-11.35 13.33 -9.7 13.66 -8 14 C-8 13.01 -8 12.02 -8 11 C-8.66 10.67 -9.32 10.34 -10 10 C-9.67 9.01 -9.34 8.02 -9 7 C-8.34 7 -7.68 7 -7 7 C-6.67 7.66 -6.34 8.32 -6 9 C-5.01 8.67 -4.02 8.34 -3 8 C-3 7.01 -3 6.02 -3 5 C-3.66 4.67 -4.32 4.34 -5 4 C-5 3.01 -5 2.02 -5 1 C-3.35 0.67 -1.7 0.34 0 0 Z " fill="#EFA538" transform="translate(111,67)"/>
<path d="M0 0 C0.33 0 0.66 0 1 0 C1.07415168 4.78715623 1.12860204 9.57397827 1.16479492 14.36157227 C1.17988243 15.99021223 1.20035506 17.61881156 1.22631836 19.24731445 C1.26270449 21.58815535 1.2797262 23.92845919 1.29296875 26.26953125 C1.30845261 26.99775589 1.32393646 27.72598053 1.33988953 28.47627258 C1.34158031 33.55384196 1.34158031 33.55384196 -0.51831055 35.9831543 C-1.00726807 36.31871338 -1.49622559 36.65427246 -2 37 C-3.09658936 33.71023192 -2.79953138 32.28696233 -2 29 C-2.99 29 -3.98 29 -5 29 C-5 29.99 -5 30.98 -5 32 C-5.66 32 -6.32 32 -7 32 C-6.81824219 31.44054687 -6.63648438 30.88109375 -6.44921875 30.3046875 C-3.35086522 20.42173418 -1.03144674 10.31446743 0 0 Z " fill="#FCF9EE" transform="translate(224,122)"/>
<path d="M0 0 C0.33 0.66 0.66 1.32 1 2 C2.32 1.67 3.64 1.34 5 1 C5 1.66 5 2.32 5 3 C5.66 3.33 6.32 3.66 7 4 C6.01 4.78375 5.02 5.5675 4 6.375 C2.515 7.674375 2.515 7.674375 1 9 C1 9.66 1 10.32 1 11 C0.236875 11.226875 -0.52625 11.45375 -1.3125 11.6875 C-4.54736301 13.26731682 -5.41641358 14.83282717 -7 18 C-7.99 17.67 -8.98 17.34 -10 17 C-9.125 12.25 -9.125 12.25 -8 10 C-6.68 10 -5.36 10 -4 10 C-4.66 9.67 -5.32 9.34 -6 9 C-5.25 6.0625 -5.25 6.0625 -4 3 C-1.875 2.125 -1.875 2.125 0 2 C0 1.34 0 0.68 0 0 Z " fill="#EB7724" transform="translate(31,37)"/>
<path d="M0 0 C5.47618332 2.85978462 10.55399971 5.66799972 15 10 C15 10.99 15 11.98 15 13 C17.44496043 14.71711243 17.44496043 14.71711243 20 16 C19.67 17.65 19.34 19.3 19 21 C17.68 20.34 16.36 19.68 15 19 C15.33 18.34 15.66 17.68 16 17 C14.8553125 16.566875 14.8553125 16.566875 13.6875 16.125 C11 15 11 15 8 13 C7.67 13.99 7.34 14.98 7 16 C6.34 16 5.68 16 5 16 C5 15.01 5 14.02 5 13 C5.66 13 6.32 13 7 13 C7 12.34 7 11.68 7 11 C6.34 11 5.68 11 5 11 C5 10.34 5 9.68 5 9 C5.66 9 6.32 9 7 9 C6.67 8.01 6.34 7.02 6 6 C5.01 5.67 4.02 5.34 3 5 C3 4.34 3 3.68 3 3 C2.01 3 1.02 3 0 3 C0 2.01 0 1.02 0 0 Z " fill="#EA7722" transform="translate(171,17)"/>
<path d="M0 0 C0 0.66 0 1.32 0 2 C-3.08809695 3.76462683 -4.23312136 4 -8 4 C-7.67 5.32 -7.34 6.64 -7 8 C6.86 8 20.72 8 35 8 C35.495 9.98 35.495 9.98 36 12 C35.42470047 11.83792557 34.84940094 11.67585114 34.25666809 11.50886536 C32.05178683 11.01167763 30.14805102 10.86938809 27.89331055 10.8581543 C27.09535568 10.85111984 26.29740082 10.84408539 25.4752655 10.83683777 C24.62104507 10.83267349 23.76682465 10.82850922 22.88671875 10.82421875 C21.06313952 10.80101894 19.23957177 10.77690154 17.41601562 10.75195312 C14.55241207 10.71687858 11.68923148 10.68750812 8.82543945 10.67407227 C6.05368336 10.65853686 3.28314923 10.61829477 0.51171875 10.57421875 C-0.76050285 10.57708138 -0.76050285 10.57708138 -2.0584259 10.58000183 C-7.8298156 10.46212434 -11.20853506 9.2389997 -16 6 C-15.4225 5.71382812 -14.845 5.42765625 -14.25 5.1328125 C-12.82474961 4.41523852 -11.40690221 3.68260001 -10 2.9296875 C-9.34 2.58164062 -8.68 2.23359375 -8 1.875 C-7.01 1.34519531 -7.01 1.34519531 -6 0.8046875 C-4 0 -4 0 0 0 Z " fill="#DF8026" transform="translate(160,52)"/>
<path d="M0 0 C0.66 0 1.32 0 2 0 C1.33333333 2.66666667 0.66666667 5.33333333 0 8 C-0.66 8 -1.32 8 -2 8 C-2.12117187 8.78246094 -2.24234375 9.56492187 -2.3671875 10.37109375 C-2.53476563 11.38300781 -2.70234375 12.39492187 -2.875 13.4375 C-3.03742187 14.44683594 -3.19984375 15.45617187 -3.3671875 16.49609375 C-3.57601563 17.32238281 -3.78484375 18.14867188 -4 19 C-4.66 19.33 -5.32 19.66 -6 20 C-6 17.36 -6 14.72 -6 12 C-7.98 12.99 -7.98 12.99 -10 14 C-10 12.02 -10 10.04 -10 8 C-9.01 7.67 -8.02 7.34 -7 7 C-6.87625 6.360625 -6.7525 5.72125 -6.625 5.0625 C-6.41875 4.381875 -6.2125 3.70125 -6 3 C-3.5 1.8125 -3.5 1.8125 -1 1 C-0.67 0.67 -0.34 0.34 0 0 Z " fill="#E97A20" transform="translate(18,64)"/>
<path d="M0 0 C0.66 0 1.32 0 2 0 C0.28137532 5.68468165 -2.1641675 10.98423881 -4.625 16.375 C-5.04523438 17.30183594 -5.46546875 18.22867188 -5.8984375 19.18359375 C-6.92964882 21.45694599 -7.96356863 23.72902406 -9 26 C-9.33 26 -9.66 26 -10 26 C-11.17076699 22.01939223 -12.25749403 18.08378283 -13 14 C-12.01 13.67 -11.02 13.34 -10 13 C-9.484375 12.484375 -8.96875 11.96875 -8.4375 11.4375 C-7.963125 10.963125 -7.48875 10.48875 -7 10 C-6.34 10 -5.68 10 -5 10 C-4.54625 9.0925 -4.0925 8.185 -3.625 7.25 C-2.41666667 4.83333333 -1.20833333 2.41666667 0 0 Z " fill="#FCFAF6" transform="translate(141,112)"/>
<path d="M0 0 C0.66 0 1.32 0 2 0 C2 0.66 2 1.32 2 2 C7.28 2 12.56 2 18 2 C18 2.33 18 2.66 18 3 C15.36 3 12.72 3 10 3 C9.05586559 7.48463846 9.05586559 10.51536154 10 15 C5.36279281 11.72469104 1.31457218 8.69564393 -2 4 C-1.01 3.67 -0.02 3.34 1 3 C0.67 2.01 0.34 1.02 0 0 Z " fill="#F49D29" transform="translate(78,64)"/>
<path d="M0 0 C5.61 0.33 11.22 0.66 17 1 C13.91636654 3.05575564 12.35566773 3.44536404 8.7734375 4 C7.22462891 4.2475 7.22462891 4.2475 5.64453125 4.5 C4.56558594 4.665 3.48664063 4.83 2.375 5 C-4.19382437 6.02662945 -10.70977343 7.06038932 -17.17333984 8.6328125 C-19 9 -19 9 -22 9 C-20 7 -20 7 -16.375 6.875 C-14.704375 6.936875 -14.704375 6.936875 -13 7 C-13 6.34 -13 5.68 -13 5 C-15.31 5.33 -17.62 5.66 -20 6 C-20 5.34 -20 4.68 -20 4 C-13.4 3.67 -6.8 3.34 0 3 C0 2.01 0 1.02 0 0 Z " fill="#FDF0E4" transform="translate(180,88)"/>
<path d="M0 0 C0.66 0 1.32 0 2 0 C2 3.3 2 6.6 2 10 C3.65 10 5.3 10 7 10 C5.25 13.875 5.25 13.875 3 15 C2.67 15.99 2.34 16.98 2 18 C0.35 17.67 -1.3 17.34 -3 17 C-3.33 17.66 -3.66 18.32 -4 19 C-5 18 -5 18 -5.0625 14.9375 C-5.041875 13.968125 -5.02125 12.99875 -5 12 C-4.01 11.67 -3.02 11.34 -2 11 C-2 9.35 -2 7.7 -2 6 C-1.34 6 -0.68 6 0 6 C0 4.02 0 2.04 0 0 Z " fill="#F28F1C" transform="translate(14,86)"/>
<path d="M0 0 C0 0.33 0 0.66 0 1 C-0.61407715 1.02505615 -1.2281543 1.0501123 -1.86083984 1.07592773 C-4.69902634 1.19345264 -7.5370044 1.31545526 -10.375 1.4375 C-11.82326172 1.49647461 -11.82326172 1.49647461 -13.30078125 1.55664062 C-18.85382475 1.79888749 -24.34685372 2.18786876 -29.8671875 2.84375 C-32.69164977 3.05067031 -35.25408739 2.65034772 -38 2 C-38 2.99 -38 3.98 -38 5 C-40.97 4.67 -43.94 4.34 -47 4 C-44.01631718 1.01631718 -40.39965671 0.98832584 -36.375 0.375 C-35.10088257 0.17825684 -35.10088257 0.17825684 -33.80102539 -0.02246094 C-22.51955716 -1.64296845 -11.3041946 -1.5217185 0 0 Z " fill="#E2834D" transform="translate(130,1)"/>
<path d="M0 0 C0 0.66 0 1.32 0 2 C-3.28312259 3.75881567 -6.23856995 5 -10 5 C-10 5.66 -10 6.32 -10 7 C-12.31 7.66 -14.62 8.32 -17 9 C-17 9.33 -17 9.66 -17 10 C-23.93 10 -30.86 10 -38 10 C-38 9.67 -38 9.34 -38 9 C-37.175 8.91363281 -36.35 8.82726562 -35.5 8.73828125 C-24.98881525 7.45957685 -15.01618994 4.92094546 -5.22265625 0.84375 C-3 0 -3 0 0 0 Z " fill="#FDEEE2" transform="translate(160,215)"/>
<path d="M0 0 C-0.33 0.99 -0.66 1.98 -1 3 C-2.65 3 -4.3 3 -6 3 C-6 3.66 -6 4.32 -6 5 C-4.68 5 -3.36 5 -2 5 C-2.66 6.32 -3.32 7.64 -4 9 C-9.28 9 -14.56 9 -20 9 C-20.33 9.66 -20.66 10.32 -21 11 C-20.67 9.68 -20.34 8.36 -20 7 C-17.36 6.34 -14.72 5.68 -12 5 C-12 4.01 -12 3.02 -12 2 C-7.82262526 0.40861915 -4.46839215 -0.21278058 0 0 Z " fill="#ED7622" transform="translate(83,7)"/>
<path d="M0 0 C1.32 0 2.64 0 4 0 C3.72349609 1.71509766 3.72349609 1.71509766 3.44140625 3.46484375 C2.87779884 7.98066114 3.28446938 12.08051966 3.9375 16.5625 C4.66340213 21.76557916 5.11746589 26.74167382 5 32 C4.67 32 4.34 32 4 32 C3.85900879 31.40050537 3.71801758 30.80101074 3.57275391 30.18334961 C2.92520782 27.43432822 2.27512296 24.68591307 1.625 21.9375 C1.40328125 20.99455078 1.1815625 20.05160156 0.953125 19.08007812 C-0.24745705 14.01291567 -1.51820858 8.99239072 -3 4 C-2.34 3.67 -1.68 3.34 -1 3 C-0.67 2.01 -0.34 1.02 0 0 Z " fill="#FCF7EC" transform="translate(219,64)"/>
<path d="M0 0 C2.0625 0.4375 2.0625 0.4375 4 1 C-1.52137185 10.11931497 -7.02954257 18.90025058 -14 27 C-14.66 26.67 -15.32 26.34 -16 26 C-10.66666667 15.33333333 -10.66666667 15.33333333 -7 12 C-6.34 12 -5.68 12 -5 12 C-3.58622659 9.36095629 -2.62759865 6.92879371 -2 4 C-1.34 4 -0.68 4 0 4 C-0.33 3.01 -0.66 2.02 -1 1 C-0.67 0.67 -0.34 0.34 0 0 Z " fill="#F6EFE7" transform="translate(117,160)"/>
<path d="M0 0 C7.92 0 15.84 0 24 0 C24 0.33 24 0.66 24 1 C22.13408203 1.27263672 22.13408203 1.27263672 20.23046875 1.55078125 C11.32724148 2.88425306 2.60676604 4.27291233 -6 7 C-6.33 5.35 -6.66 3.7 -7 2 C-4.69 2 -2.38 2 0 2 C0 1.34 0 0.68 0 0 Z " fill="#FDF1E9" transform="translate(80,0)"/>
<path d="M0 0 C3.40478259 1.54762845 6.20695088 3.56311012 9.1875 5.8125 C13.93325935 9.31441113 18.75742315 12.30751608 24 15 C24 15.66 24 16.32 24 17 C22.20496816 16.79888439 20.4137926 16.5631149 18.625 16.3125 C17.62726562 16.18488281 16.62953125 16.05726563 15.6015625 15.92578125 C13 15 13 15 11.76953125 12.5 C11.51558594 11.675 11.26164062 10.85 11 10 C8.39608549 8.23605791 7.19219704 8 4 8 C2.66666667 5.33333333 1.33333333 2.66666667 0 0 Z " fill="#F4EFE5" transform="translate(20,119)"/>
<path d="M0 0 C3.63 0.33 7.26 0.66 11 1 C10.34 2.65 9.68 4.3 9 6 C9.66 6.12375 10.32 6.2475 11 6.375 C14.69698583 7.14520538 18.34005942 8.06950663 22 9 C21.34 10.32 20.68 11.64 20 13 C19.09378906 12.52949219 18.18757813 12.05898437 17.25390625 11.57421875 C10.61180014 8.16555342 4.19203395 5.10800995 -3 3 C-2.01 2.67 -1.02 2.34 0 2 C0 1.34 0 0.68 0 0 Z " fill="#F8FDF7" transform="translate(149,3)"/>
<path d="M0 0 C3.375 1 3.375 1 5.375 4 C4.385 4.495 4.385 4.495 3.375 5 C3.375 4.34 3.375 3.68 3.375 3 C-1.84959741 5.96852125 -3.93852309 8.62704618 -6.625 14 C-6.955 14 -7.285 14 -7.625 14 C-7.98219471 9.44576746 -8.138696 6.027392 -6.0625 1.875 C-3.625 0 -3.625 0 0 0 Z " fill="#FAEFE3" transform="translate(116.625,47)"/>
<path d="M0 0 C9.24 0 18.48 0 28 0 C27.67 1.32 27.34 2.64 27 4 C22.93569208 5.11046664 20.33272426 4.79510533 16.3125 3.625 C10.86682108 2.14717635 5.62298719 1.36076688 0 1 C0 0.67 0 0.34 0 0 Z " fill="#FDEBDD" transform="translate(120,0)"/>
<path d="M0 0 C1.32 0 2.64 0 4 0 C4 1.98 4 3.96 4 6 C4.66 6 5.32 6 6 6 C6 7.32 6 8.64 6 10 C5.34 10 4.68 10 4 10 C4 10.66 4 11.32 4 12 C3.4225 12.53625 2.845 13.0725 2.25 13.625 C-0.68603386 16.72414685 -2.24095641 20.14507468 -4 24 C-5.32 23.67 -6.64 23.34 -8 23 C-6.19526171 18.94614063 -3.54211524 16.13397514 -0.55859375 12.90234375 C1.2044029 10.98116107 1.2044029 10.98116107 2 8 C1.69193547 5.92352124 1.69193547 5.92352124 1.0625 3.8125 C0.711875 2.554375 0.36125 1.29625 0 0 Z " fill="#FCEECE" transform="translate(110,62)"/>
<path d="M0 0 C2.1875 0.3125 2.1875 0.3125 4 1 C4 1.99 4 2.98 4 4 C2.20703125 5.6484375 2.20703125 5.6484375 -0.1875 7.375 C-2.94253921 9.4196203 -5.55337525 11.40470207 -7.9375 13.875 C-10 16 -10 16 -12 17 C-12 15.68 -12 14.36 -12 13 C-10.68 12.67 -9.36 12.34 -8 12 C-8.185625 11.38125 -8.37125 10.7625 -8.5625 10.125 C-9 8 -9 8 -8 6 C-5.69 6 -3.38 6 -1 6 C-1 5.34 -1 4.68 -1 4 C-1.66 3.67 -2.32 3.34 -3 3 C-1.75 1.4375 -1.75 1.4375 0 0 Z " fill="#F9F2E9" transform="translate(42,19)"/>
<path d="M0 0 C1.26811517 3.8043455 0.54052774 5.8028066 -0.375 9.6875 C-1.53594236 14.80306793 -2.47838348 19.78383484 -3 25 C-1.68 25.66 -0.36 26.32 1 27 C0.01 27.33 -0.98 27.66 -2 28 C-2 27.34 -2 26.68 -2 26 C-2.66 26 -3.32 26 -4 26 C-4 17.75 -4 9.5 -4 1 C-2.68 0.67 -1.36 0.34 0 0 Z " fill="#FBF4E7" transform="translate(4,79)"/>
<path d="M0 0 C2.475 0.495 2.475 0.495 5 1 C5 1.66 5 2.32 5 3 C6.98 2.34 8.96 1.68 11 1 C12.4606285 3.64738916 13 4.89448334 13 8 C13.99 8.33 14.98 8.66 16 9 C17 10 18 11 19 12 C19.66 12 20.32 12 21 12 C20.67 13.32 20.34 14.64 20 16 C19.31035156 15.41992188 18.62070313 14.83984375 17.91015625 14.2421875 C12.64198968 9.86288854 7.37970967 5.74902887 1.58203125 2.09375 C1.05996094 1.7328125 0.53789062 1.371875 0 1 C0 0.67 0 0.34 0 0 Z " fill="#F8EFE3" transform="translate(171,16)"/>
<path d="M0 0 C0.99 0.33 1.98 0.66 3 1 C2.98839844 1.80824219 2.97679688 2.61648437 2.96484375 3.44921875 C2.95582031 4.51785156 2.94679688 5.58648437 2.9375 6.6875 C2.92589844 7.74324219 2.91429688 8.79898438 2.90234375 9.88671875 C2.99134575 12.72410262 3.35060162 15.2438919 4 18 C2.02 18.99 2.02 18.99 0 20 C-1 19 -1 19 -1.02172852 17.14233398 C-0.95103149 15.95619507 -0.95103149 15.95619507 -0.87890625 14.74609375 C-0.83056641 13.89208984 -0.78222656 13.03808594 -0.73242188 12.15820312 C-0.67634766 11.26037109 -0.62027344 10.36253906 -0.5625 9.4375 C-0.51029297 8.53580078 -0.45808594 7.63410156 -0.40429688 6.70507812 C-0.27419751 4.4697345 -0.13922064 2.2347911 0 0 Z " fill="#F17D20" transform="translate(124,181)"/>
<path d="M0 0 C0.33 0 0.66 0 1 0 C0.67 6.27 0.34 12.54 0 19 C-1.32 18.67 -2.64 18.34 -4 18 C-4.66 18.33 -5.32 18.66 -6 19 C-6.66 18.34 -7.32 17.68 -8 17 C-7.50628906 16.10796875 -7.01257813 15.2159375 -6.50390625 14.296875 C-5.85653232 13.11471392 -5.20941011 11.93241496 -4.5625 10.75 C-4.07426758 9.87021484 -4.07426758 9.87021484 -3.57617188 8.97265625 C-1.97117383 6.0274021 -0.5836512 3.32105755 0 0 Z " fill="#F4F5EC" transform="translate(216,154)"/>
<path d="M0 0 C3 1 6 2 9 3 C5.3024021 5.46506526 1.46515664 7.567417 -2.4375 9.6875 C-3.5831543 10.33041992 -3.5831543 10.33041992 -4.75195312 10.98632812 C-5.49251953 11.38658203 -6.23308594 11.78683594 -6.99609375 12.19921875 C-8.00434204 12.75355591 -8.00434204 12.75355591 -9.03295898 13.3190918 C-11.41453127 14.14349357 -12.6565114 13.82040085 -15 13 C-15 12.34 -15 11.68 -15 11 C-14.030625 10.7525 -13.06125 10.505 -12.0625 10.25 C-8.15933231 9.15074053 -4.57969125 7.53155835 -0.91796875 5.8046875 C1 5 1 5 3 5 C3 4.34 3 3.68 3 3 C2.01 3 1.02 3 0 3 C0 2.01 0 1.02 0 0 Z " fill="#E68C30" transform="translate(64,65)"/>
<path d="M0 0 C0.66 0.33 1.32 0.66 2 1 C1.505 1.763125 1.01 2.52625 0.5 3.3125 C-1.24368308 5.92363751 -1.24368308 5.92363751 -1 9 C-1.66386719 9.12117188 -2.32773437 9.24234375 -3.01171875 9.3671875 C-7.53424459 10.22547708 -11.79938524 11.03971311 -16 13 C-15 10 -15 10 -13.14453125 8.7890625 C-12.37496094 8.40492187 -11.60539062 8.02078125 -10.8125 7.625 C-6.70898927 5.46836257 -3.44375964 3.09055353 0 0 Z " fill="#EF7721" transform="translate(57,16)"/>
<path d="M0 0 C0 1.65 0 3.3 0 5 C0.94875 4.95875 1.8975 4.9175 2.875 4.875 C6 5 6 5 8 7 C8 7.99 8 8.98 8 10 C7.34 10 6.68 10 6 10 C5.67 11.32 5.34 12.64 5 14 C3.51851668 12.21024844 2.03988094 10.41813943 0.5625 8.625 C-0.26121094 7.62726562 -1.08492187 6.62953125 -1.93359375 5.6015625 C-4 3 -4 3 -5 1 C-1.125 0 -1.125 0 0 0 Z " fill="#F7F6E9" transform="translate(200,35)"/>
<path d="M0 0 C1.66392986 2.54483391 2.01746843 3.79911303 1.75 6.875 C1.00153496 9.99360432 0.07835802 12.98059756 -1 16 C-1.33 14.68 -1.66 13.36 -2 12 C-2.66 12 -3.32 12 -4 12 C-4.19491883 7.80924525 -3.93330576 4.75920564 -2 1 C-1.34 0.67 -0.68 0.34 0 0 Z " fill="#EBA230" transform="translate(216,144)"/>
<path d="M0 0 C0.66 0.33 1.32 0.66 2 1 C2.36630156 4.93774177 2.30233203 6.56539771 0 9.875 C-0.66 10.57625 -1.32 11.2775 -2 12 C0.97 12 3.94 12 7 12 C7 12.33 7 12.66 7 13 C0.73 13 -5.54 13 -12 13 C-12 12.67 -12 12.34 -12 12 C-10.4221875 12.0928125 -10.4221875 12.0928125 -8.8125 12.1875 C-4.8811218 11.41658648 -4.8811218 11.41658648 -3.421875 8.484375 C-2.1730285 5.68523628 -1.03166189 2.88580078 0 0 Z " fill="#DD864B" transform="translate(115,212)"/>
<path d="M0 0 C0.66 0 1.32 0 2 0 C2 0.99 2 1.98 2 3 C2.99 3 3.98 3 5 3 C3.46162154 6.19624262 1.71133468 9.21605574 -0.125 12.25 C-0.66382813 13.14203125 -1.20265625 14.0340625 -1.7578125 14.953125 C-2.16773437 15.62859375 -2.57765625 16.3040625 -3 17 C-4.07862981 13.36433867 -3.67667769 12.35335539 -2 9 C-2 7.989375 -2 6.97875 -2 5.9375 C-2 3 -2 3 0 0 Z " fill="#FBF6F0" transform="translate(20,38)"/>
<path d="M0 0 C2.99749818 0.35684502 5.99835249 0.68009652 9 1 C9 1.66 9 2.32 9 3 C9.66 3.33 10.32 3.66 11 4 C7.47199574 4 3.95999811 3.86412479 0.4375 3.6875 C-0.24763672 3.66494141 -0.93277344 3.64238281 -1.63867188 3.61914062 C-3.62890625 3.51171875 -3.62890625 3.51171875 -7 3 C-7.66 2.01 -8.32 1.02 -9 0 C-5.91682893 -1.54158553 -3.37157946 -0.53517134 0 0 Z " fill="#EB751C" transform="translate(135,4)"/>
<path d="M0 0 C1.9375 0.3125 1.9375 0.3125 4 1 C5.21386936 4.64160808 4.6674695 5.33165469 3.0625 8.6875 C2.68222656 9.49574219 2.30195312 10.30398437 1.91015625 11.13671875 C1.60980469 11.75160156 1.30945313 12.36648437 1 13 C0.01 12.34 -0.98 11.68 -2 11 C-1 3.57142857 -1 3.57142857 0 0 Z " fill="#F6FAF7" transform="translate(122,144)"/>
<path d="M0 0 C3.3 0.33 6.6 0.66 10 1 C10.33 1.99 10.66 2.98 11 4 C11.66 4.33 12.32 4.66 13 5 C12.01 6.485 12.01 6.485 11 8 C5.33846154 6.52307692 5.33846154 6.52307692 3.625 3.875 C3.41875 3.25625 3.2125 2.6375 3 2 C1.68 2.33 0.36 2.66 -1 3 C-0.67 2.01 -0.34 1.02 0 0 Z " fill="#E77621" transform="translate(148,9)"/>
<path d="M0 0 C0.33 0 0.66 0 1 0 C1.55353075 15.92938497 1.55353075 15.92938497 -2 22 C-2.66 22 -3.32 22 -4 22 C-3.25403037 14.5403037 -1.63253871 7.31048782 0 0 Z " fill="#D27D35" transform="translate(122,186)"/>
<path d="M0 0 C2.5 1.1875 2.5 1.1875 5 3 C5.3125 5.6875 5.3125 5.6875 5 8 C4.01 8.495 4.01 8.495 3 9 C2.67 8.34 2.34 7.68 2 7 C2.061875 7.928125 2.12375 8.85625 2.1875 9.8125 C2 13 2 13 0.48828125 14.69921875 C-0.00285156 15.12847656 -0.49398437 15.55773437 -1 16 C-1.02685095 13.52076199 -1.04676547 11.0418116 -1.0625 8.5625 C-1.07506836 7.50192383 -1.07506836 7.50192383 -1.08789062 6.41992188 C-1.09653588 4.61306441 -1.05220011 2.80612397 -1 1 C-0.67 0.67 -0.34 0.34 0 0 Z " fill="#F8A129" transform="translate(209,141)"/>
<path d="M0 0 C-1.78809697 1.17213045 -3.58059125 2.33755526 -5.375 3.5 C-6.37273437 4.1496875 -7.37046875 4.799375 -8.3984375 5.46875 C-11 7 -11 7 -13 7 C-12.4375 3.625 -12.4375 3.625 -11 0 C-6.50991028 -2.07874524 -4.23384835 -2.45264784 0 0 Z " fill="#E67E2E" transform="translate(180,203)"/>
<path d="M0 0 C0.99 0 1.98 0 3 0 C3 2.64 3 5.28 3 8 C4.32 7.67 5.64 7.34 7 7 C7 10 7 10 5.3125 11.8125 C3 13 3 13 0.25 12.1875 C-0.4925 11.795625 -1.235 11.40375 -2 11 C-1.34 10.34 -0.68 9.68 0 9 C0.33 8.01 0.66 7.02 1 6 C0.34 6 -0.32 6 -1 6 C-0.67 4.02 -0.34 2.04 0 0 Z " fill="#E98834" transform="translate(7,96)"/>
<path d="M0 0 C-2.92620616 2.27291362 -5.94024212 4.23315875 -9.125 6.125 C-9.99382813 6.64320312 -10.86265625 7.16140625 -11.7578125 7.6953125 C-13.14874374 8.5046697 -14.56062547 9.28031273 -16 10 C-16 9.01 -16 8.02 -16 7 C-13 5 -13 5 -10 5 C-10 4.34 -10 3.68 -10 3 C-10.66 3 -11.32 3 -12 3 C-12 2.34 -12 1.68 -12 1 C-8.00439392 -1.83022097 -4.57262677 -0.76210446 0 0 Z " fill="#FEF2E3" transform="translate(64,11)"/>
<path d="M0 0 C0.99 0.33 1.98 0.66 3 1 C-7.04972376 11.24677716 -7.04972376 11.24677716 -11 14 C-11.66 14 -12.32 14 -13 14 C-11.375 8.25 -11.375 8.25 -8 6 C-7.319375 5.87625 -6.63875 5.7525 -5.9375 5.625 C-3.80236647 5.17831439 -3.80236647 5.17831439 -2.875 3 C-2.58625 2.34 -2.2975 1.68 -2 1 C-1.34 0.67 -0.68 0.34 0 0 Z " fill="#F1EBDF" transform="translate(99,187)"/>
<path d="M0 0 C0 0.99 0 1.98 0 3 C-0.66386719 3.31453125 -1.32773438 3.6290625 -2.01171875 3.953125 C-6.79950392 6.27362818 -10.90695328 8.57069059 -15 12 C-17.29000148 13.50657992 -19.54656863 14.75013874 -22 16 C-22.66 15.67 -23.32 15.34 -24 15 C-16.33721806 9.08783357 -8.61041646 4.38049804 0 0 Z " fill="#DA7F40" transform="translate(66,10)"/>
<path d="M0 0 C0 3 0 3 -1.5625 6.0625 C-2.2740625 7.5165625 -2.2740625 7.5165625 -3 9 C-2.67 9.66 -2.34 10.32 -2 11 C-5.3 10.67 -8.6 10.34 -12 10 C-8.40945767 6.11024581 -4.26101118 3.10267805 0 0 Z " fill="#F9F1E2" transform="translate(186,197)"/>
<path d="M0 0 C0.66 0 1.32 0 2 0 C3.38592445 2.27022699 4.03309948 3.56594541 3.828125 6.25390625 C3.63734375 7.01574219 3.4465625 7.77757812 3.25 8.5625 C2.97929687 9.70912109 2.97929687 9.70912109 2.703125 10.87890625 C2 13 2 13 0 16 C-2.32622007 11.34755986 -0.98524838 4.9262419 0 0 Z " fill="#F2AA3B" transform="translate(218,134)"/>
<path d="M0 0 C3 2 3 2 3.6875 5.125 C3.790625 6.07375 3.89375 7.0225 4 8 C3.01 8.495 3.01 8.495 2 9 C1.34 8.67 0.68 8.34 0 8 C-0.33 8.99 -0.66 9.98 -1 11 C-3.0625 12.1875 -3.0625 12.1875 -5 13 C-4.54554036 11.58208592 -4.08625056 10.16571954 -3.625 8.75 C-3.24214844 7.56664063 -3.24214844 7.56664063 -2.8515625 6.359375 C-2.04826333 4.13372042 -1.10288338 2.09068328 0 0 Z " fill="#F3EEE9" transform="translate(92,101)"/>
<path d="M0 0 C0 3 0 3 -1 5 C-1.99 5 -2.98 5 -4 5 C-3.67 6.65 -3.34 8.3 -3 10 C-5.33333333 10 -7.66666667 10 -10 10 C-9.32942834 7.06624899 -8.5040235 5.38058917 -6.0859375 3.5546875 C-4.08267818 2.3159229 -2.06666551 1.12945673 0 0 Z " fill="#EFA735" transform="translate(156,99)"/>
<path d="M0 0 C2.64 0.66 5.28 1.32 8 2 C8.33 1.34 8.66 0.68 9 0 C9 0.66 9 1.32 9 2 C10.65 2 12.3 2 14 2 C10.87567603 4.52349243 7.61939504 6.27256146 4 8 C3.67 7.01 3.34 6.02 3 5 C2.484375 4.484375 1.96875 3.96875 1.4375 3.4375 C0.963125 2.963125 0.48875 2.48875 0 2 C0 1.34 0 0.68 0 0 Z " fill="#FBF4EC" transform="translate(144,96)"/>
<path d="M0 0 C-2.08310086 1.60446931 -4.16647227 3.20858518 -6.25 4.8125 C-7.12978516 5.49022461 -7.12978516 5.49022461 -8.02734375 6.18164062 C-9.16995143 7.06106339 -10.31379744 7.93888 -11.45898438 8.81494141 C-12.74766407 9.80595079 -14.02385914 10.81316704 -15.296875 11.82421875 C-17 13 -17 13 -19 13 C-17.39685982 8.19057947 -13.35562797 5.79569468 -9.125 3.3125 C-8.42375 2.879375 -7.7225 2.44625 -7 2 C-7 1.34 -7 0.68 -7 0 C-2.25 -1.125 -2.25 -1.125 0 0 Z " fill="#E09337" transform="translate(35,90)"/>
<path d="M0 0 C1.33650858 4.00952575 1.20225023 7.82016197 1 12 C0.34 12.66 -0.32 13.32 -1 14 C-1.46290221 16.66242821 -1.46290221 16.66242821 -1.625 19.625 C-1.69976562 20.62789062 -1.77453125 21.63078125 -1.8515625 22.6640625 C-1.90054687 23.43492188 -1.94953125 24.20578125 -2 25 C-2.66 25 -3.32 25 -4 25 C-4.51105763 16.48237279 -2.69008827 8.0702648 0 0 Z " fill="#E2904A" transform="translate(5,79)"/>
<path d="M0 0 C2.5419589 -0.05434116 5.08273682 -0.0938339 7.625 -0.125 C8.33785156 -0.14175781 9.05070313 -0.15851562 9.78515625 -0.17578125 C14.2612164 -0.21684602 17.77949278 0.30913433 22 2 C22 2.33 22 2.66 22 3 C17.21521178 3.09764874 12.72314313 2.77112541 8 2 C7.67 2.66 7.34 3.32 7 4 C4.69 3.67 2.38 3.34 0 3 C0 2.01 0 1.02 0 0 Z " fill="#E07E31" transform="translate(120,2)"/>
<path d="M0 0 C1.32 0 2.64 0 4 0 C4 0.66 4 1.32 4 2 C0.91190305 3.76462683 -0.23312136 4 -4 4 C-3.67 4.99 -3.34 5.98 -3 7 C-5.8125 7.6875 -5.8125 7.6875 -9 8 C-10.69921875 6.51953125 -10.69921875 6.51953125 -12 5 C-10.82630859 4.58427734 -10.82630859 4.58427734 -9.62890625 4.16015625 C-8.61699219 3.79792969 -7.60507813 3.43570313 -6.5625 3.0625 C-5.55316406 2.70285156 -4.54382813 2.34320313 -3.50390625 1.97265625 C-1.09686255 1.23122361 -1.09686255 1.23122361 0 0 Z " fill="#E58332" transform="translate(156,52)"/>
<path d="M0 0 C5.5026085 2.87358444 10.42641422 5.77822851 15 10 C15 10.33 15 10.66 15 11 C12.1875 11.3125 12.1875 11.3125 9 11 C7.3125 8.5625 7.3125 8.5625 6 6 C5.01 5.67 4.02 5.34 3 5 C3 4.34 3 3.68 3 3 C2.01 3 1.02 3 0 3 C0 2.01 0 1.02 0 0 Z " fill="#E17F3A" transform="translate(171,17)"/>
<path d="M0 0 C0.66 0 1.32 0 2 0 C2 0.99 2 1.98 2 3 C2.99 3 3.98 3 5 3 C5 3.66 5 4.32 5 5 C5.66 5.33 6.32 5.66 7 6 C6.67 6.99 6.34 7.98 6 9 C3.03 8.505 3.03 8.505 0 8 C-0.98120464 4.94736336 -0.98120464 3.05263664 0 0 Z " fill="#E9751F" transform="translate(169,17)"/>
<path d="M0 0 C0.99 0.33 1.98 0.66 3 1 C3 1.33 3 1.66 3 2 C6.62885324 2.15149298 6.62885324 2.15149298 10 1 C10 1.66 10 2.32 10 3 C10.66 3.33 11.32 3.66 12 4 C9.29120665 5.35439668 6.99066732 5.06501451 4 5 C4 5.66 4 6.32 4 7 C2.68 7 1.36 7 0 7 C-0.93423645 3.98968256 -1.04449911 3.13349732 0 0 Z " fill="#EE7A21" transform="translate(144,207)"/>
<path d="M0 0 C-0.66 0 -1.32 0 -2 0 C-2 0.66 -2 1.32 -2 2 C-3.65 2 -5.3 2 -7 2 C-6.67 3.65 -6.34 5.3 -6 7 C-6.66 7 -7.32 7 -8 7 C-8.33 6.34 -8.66 5.68 -9 5 C-11.52733235 4.34444881 -11.52733235 4.34444881 -14 4 C-13.67 3.01 -13.34 2.02 -13 1 C-11.07421875 0.234375 -11.07421875 0.234375 -8.6875 -0.25 C-7.90761719 -0.42015625 -7.12773437 -0.5903125 -6.32421875 -0.765625 C-3.92348133 -1.00771617 -2.28190412 -0.7310448 0 0 Z " fill="#EFB53C" transform="translate(174,95)"/>
<path d="M0 0 C-0.59861742 2.35171131 -1.26924352 4.6859378 -2 7 C-2.99 7.495 -2.99 7.495 -4 8 C-5.32 7.01 -6.64 6.02 -8 5 C-7.67 4.34 -7.34 3.68 -7 3 C-7.66 2.67 -8.32 2.34 -9 2 C-5.86501708 0.14223235 -3.62528568 -0.20140476 0 0 Z " fill="#FCF7EE" transform="translate(178,207)"/>
<path d="M0 0 C-1.24354886 1.29787866 -2.4951264 2.58806759 -3.75 3.875 C-4.44609375 4.59429687 -5.1421875 5.31359375 -5.859375 6.0546875 C-7.85122217 7.86479679 -9.5427658 8.94848086 -12 10 C-11.67 8.68 -11.34 7.36 -11 6 C-10.34 6.33 -9.68 6.66 -9 7 C-9.33 5.35 -9.66 3.7 -10 2 C-8.71211992 1.46987262 -7.41953322 0.9511671 -6.125 0.4375 C-5.40570313 0.14746094 -4.68640625 -0.14257812 -3.9453125 -0.44140625 C-2 -1 -2 -1 0 0 Z " fill="#E18B2D" transform="translate(192,192)"/>
<path d="M0 0 C1 3 1 3 -0.4375 6.1875 C-1.2109375 7.5796875 -1.2109375 7.5796875 -2 9 C-1.34 9.66 -0.68 10.32 0 11 C-1.3125 12.5 -1.3125 12.5 -3 14 C-3.99 14 -4.98 14 -6 14 C-6.33 14.99 -6.66 15.98 -7 17 C-7.66 16.34 -8.32 15.68 -9 15 C-8.51789063 14.25234375 -8.03578125 13.5046875 -7.5390625 12.734375 C-6.90742187 11.74953125 -6.27578125 10.7646875 -5.625 9.75 C-4.99851562 8.77546875 -4.37203125 7.8009375 -3.7265625 6.796875 C-2.34865148 4.56478385 -1.11687358 2.36912578 0 0 Z " fill="#F4ECE0" transform="translate(86,114)"/>
<path d="M0 0 C4.0130955 1.37591846 6.7666578 3.27718551 10 6 C10.99 6.66 11.98 7.32 13 8 C11.68 9.65 10.36 11.3 9 13 C8.62875 12.34 8.2575 11.68 7.875 11 C5.47293698 7.15669917 2.75595775 3.59433972 0 0 Z " fill="#E69C38" transform="translate(88,79)"/>
<path d="M0 0 C-3.465 1.485 -3.465 1.485 -7 3 C-6.67 3.66 -6.34 4.32 -6 5 C-9.4019487 7.09350689 -12.05272412 7.17942163 -16 7 C-11.87785219 2.2337666 -6.51863027 -2.17287676 0 0 Z " fill="#E37C36" transform="translate(79,7)"/>
<path d="M0 0 C1.21065165 3.63195496 0.62784815 5.06531629 -0.4375 8.6875 C-0.86869141 10.17830078 -0.86869141 10.17830078 -1.30859375 11.69921875 C-1.53675781 12.45847656 -1.76492187 13.21773437 -2 14 C-2.66 14 -3.32 14 -4 14 C-4.05422947 12.5629191 -4.09289723 11.12524538 -4.125 9.6875 C-4.14820312 8.88699219 -4.17140625 8.08648437 -4.1953125 7.26171875 C-4 5 -4 5 -2 2 C-1.34 2 -0.68 2 0 2 C0 1.34 0 0.68 0 0 Z " fill="#663304" transform="translate(120,192)"/>
<path d="M0 0 C0.33 0.99 0.66 1.98 1 3 C0.54625 3.37125 0.0925 3.7425 -0.375 4.125 C-2.47029394 6.54264685 -3.12013285 8.95430602 -4 12 C-5.98 12 -7.96 12 -10 12 C-9.61328125 11.55269531 -9.2265625 11.10539063 -8.828125 10.64453125 C-5.81609925 7.1478974 -2.85678969 3.62592537 0 0 Z " fill="#FBEBDB" transform="translate(202,180)"/>
<path d="M0 0 C3.01127613 2.73752375 4.78908715 5.18242746 5.265625 9.2890625 C5.26046875 10.05992188 5.2553125 10.83078125 5.25 11.625 C5.25515625 12.40101562 5.2603125 13.17703125 5.265625 13.9765625 C5 16 5 16 3 18 C3 15.69 3 13.38 3 11 C2.34 10.67 1.68 10.34 1 10 C0.5859375 7.71484375 0.5859375 7.71484375 0.375 4.9375 C0.30023438 4.01839844 0.22546875 3.09929687 0.1484375 2.15234375 C0.09945312 1.44207031 0.05046875 0.73179688 0 0 Z " fill="#FBEBD0" transform="translate(201,70)"/>
<path d="M0 0 C3.53600465 1.91135386 5.78972846 3.62642766 8 7 C6.8553125 7.2165625 6.8553125 7.2165625 5.6875 7.4375 C2.91827092 7.9632594 2.91827092 7.9632594 0 9 C-0.33 8.01 -0.66 7.02 -1 6 C-0.34 6 0.32 6 1 6 C0.67 4.02 0.34 2.04 0 0 Z " fill="#FBF1E9" transform="translate(193,63)"/>
<path d="M0 0 C0.33 0.66 0.66 1.32 1 2 C0.0625 4.125 0.0625 4.125 -1 6 C-0.01 6.33 0.98 6.66 2 7 C1.01 7.495 1.01 7.495 0 8 C-0.99 7.67 -1.98 7.34 -3 7 C-3.2475 7.94875 -3.495 8.8975 -3.75 9.875 C-5 13 -5 13 -7.125 14.375 C-7.74375 14.58125 -8.3625 14.7875 -9 15 C-7.61219205 11.10993227 -5.7847773 8.03441292 -3.375 4.6875 C-2.74335938 3.80449219 -2.11171875 2.92148437 -1.4609375 2.01171875 C-0.97882812 1.34785156 -0.49671875 0.68398438 0 0 Z " fill="#E48945" transform="translate(26,40)"/>
<path d="M0 0 C0.66 0.66 1.32 1.32 2 2 C2.66 1.34 3.32 0.68 4 0 C3.67 2.64 3.34 5.28 3 8 C-0.3 8 -3.6 8 -7 8 C-7 7.67 -7 7.34 -7 7 C-5.35 7 -3.7 7 -2 7 C-1.34 4.69 -0.68 2.38 0 0 Z " fill="#5A2F0D" transform="translate(107,216)"/>
<path d="M0 0 C0 0.66 0 1.32 0 2 C-3.28312259 3.75881567 -6.23856995 5 -10 5 C-10 5.66 -10 6.32 -10 7 C-12.97 6.505 -12.97 6.505 -16 6 C-13.63224279 3.63224279 -11.70288662 3.00103504 -8.5625 1.875 C-7.59441406 1.52179688 -6.62632812 1.16859375 -5.62890625 0.8046875 C-3 0 -3 0 0 0 Z " fill="#FBEAD5" transform="translate(160,215)"/>
<path d="M0 0 C1.65 1.65 3.3 3.3 5 5 C4.01 5 3.02 5 2 5 C1.67 6.65 1.34 8.3 1 10 C-0.32 9.67 -1.64 9.34 -3 9 C-3.75 6.75 -3.75 6.75 -4 4 C-2.0625 1.6875 -2.0625 1.6875 0 0 Z " fill="#562E06" transform="translate(92,85)"/>
<path d="M0 0 C2.31 0 4.62 0 7 0 C6.67 0.99 6.34 1.98 6 3 C2.41388869 4.46704554 -1.1911316 5.32784675 -5 6 C-4.67 5.01 -4.34 4.02 -4 3 C-1.9375 2.3125 -1.9375 2.3125 0 2 C0 1.34 0 0.68 0 0 Z " fill="#F88C1A" transform="translate(35,82)"/>
<path d="M0 0 C0.66 0.33 1.32 0.66 2 1 C1.67 1.66 1.34 2.32 1 3 C1.66 3.12375 2.32 3.2475 3 3.375 C6.69698583 4.14520538 10.34005942 5.06950663 14 6 C13.34 7.32 12.68 8.64 12 10 C7.38 7.69 2.76 5.38 -2 3 C-1.34 2.01 -0.68 1.02 0 0 Z " fill="#FCEBD9" transform="translate(157,6)"/>
<path d="M0 0 C0.33 1.32 0.66 2.64 1 4 C0.01 4 -0.98 4 -2 4 C-2.33 4.99 -2.66 5.98 -3 7 C-4.32796291 7.35412344 -5.66216607 7.68521554 -7 8 C-8.73026102 9.47890069 -8.73026102 9.47890069 -10 11 C-10.99 10.67 -11.98 10.34 -13 10 C-8.71 6.7 -4.42 3.4 0 0 Z " fill="#6D3606" transform="translate(31,92)"/>
<path d="M0 0 C1.65 1.65 3.3 3.3 5 5 C4.34 6.32 3.68 7.64 3 9 C2.67 8.34 2.34 7.68 2 7 C1.01 7.33 0.02 7.66 -1 8 C-2.5 6.625 -2.5 6.625 -4 5 C-4 4.34 -4 3.68 -4 3 C-3.34 3 -2.68 3 -2 3 C-2 3.66 -2 4.32 -2 5 C-1.34 5 -0.68 5 0 5 C0 3.35 0 1.7 0 0 Z " fill="#E57E32" transform="translate(198,40)"/>
<path d="M0 0 C5.61 0.33 11.22 0.66 17 1 C13.77252945 3.15164703 12.79494361 3.27245079 9.0625 3.25 C8.20785156 3.25515625 7.35320312 3.2603125 6.47265625 3.265625 C3.88025433 2.98713633 2.23485766 2.30669172 0 1 C0 0.67 0 0.34 0 0 Z " fill="#FCF7EE" transform="translate(180,88)"/>
<path d="M0 0 C0 0.66 0 1.32 0 2 C-1.32 2 -2.64 2 -4 2 C-4 2.66 -4 3.32 -4 4 C-3.34 4.33 -2.68 4.66 -2 5 C-5.08809695 6.76462683 -6.23312136 7 -10 7 C-10 6.01 -10 5.02 -10 4 C-6.35022743 1.09677182 -4.74147821 0 0 0 Z " fill="#F67F20" transform="translate(154,50)"/>
<path d="M0 0 C0.144375 0.61875 0.28875 1.2375 0.4375 1.875 C0.93152225 4.03258322 0.93152225 4.03258322 2 6 C0.68 5.67 -0.64 5.34 -2 5 C-2.33 5.66 -2.66 6.32 -3 7 C-3.66 7 -4.32 7 -5 7 C-5.680625 8.2065625 -5.680625 8.2065625 -6.375 9.4375 C-8 12 -8 12 -10.1015625 12.66015625 C-10.72804688 12.77230469 -11.35453125 12.88445313 -12 13 C-8.43679155 7.90789714 -4.95258714 3.77339973 0 0 Z " fill="#E48745" transform="translate(39,27)"/>
<path d="M0 0 C1.09898702 3.29696105 0.87124444 4.40494903 0.0625 7.6875 C-0.13214844 8.49574219 -0.32679687 9.30398437 -0.52734375 10.13671875 C-0.68332031 10.75160156 -0.83929687 11.36648437 -1 12 C-1.66 12 -2.32 12 -3 12 C-3.33 12.99 -3.66 13.98 -4 15 C-4.99 15.33 -5.98 15.66 -7 16 C-5.35433477 10.31497465 -2.70967216 5.23318364 0 0 Z " fill="#E38243" transform="translate(15,56)"/>
<path d="M0 0 C0.66 0.33 1.32 0.66 2 1 C1.01 2.485 1.01 2.485 0 4 C0.99 4.99 1.98 5.98 3 7 C2.67 7.99 2.34 8.98 2 10 C-0.5 8.625 -0.5 8.625 -3 7 C-3 6.34 -3 5.68 -3 5 C-4.32 4.67 -5.64 4.34 -7 4 C-1.7265625 0.77734375 -1.7265625 0.77734375 0 0 Z " fill="#FDF6E8" transform="translate(167,210)"/>
<path d="M0 0 C1.98 0 3.96 0 6 0 C6.99 2.31 7.98 4.62 9 7 C4.68381834 7 3.07210341 4.86729652 0 2 C0 1.34 0 0.68 0 0 Z " fill="#553923" transform="translate(18,115)"/>
<path d="M0 0 C2.64 0 5.28 0 8 0 C8 0.99 8 1.98 8 3 C8.31088368 4.67099977 8.64080332 6.33871537 9 8 C7.68388323 7.04663979 6.37221039 6.08714226 5.0625 5.125 C4.33160156 4.59132813 3.60070312 4.05765625 2.84765625 3.5078125 C1 2 1 2 0 0 Z " fill="#E59B2E" transform="translate(79,71)"/>
<path d="M0 0 C0.99 0.33 1.98 0.66 3 1 C3 2.98 3 4.96 3 7 C1.35 6.67 -0.3 6.34 -2 6 C-2.33 4.68 -2.66 3.36 -3 2 C-2.01 1.34 -1.02 0.68 0 0 Z " fill="#F2FBF9" transform="translate(121,51)"/>
<path d="M0 0 C0.66 0.33 1.32 0.66 2 1 C0.40109514 6.19644079 -1.74138003 11.06612142 -4 16 C-4.66 15.34 -5.32 14.68 -6 14 C-5.34 11.69 -4.68 9.38 -4 7 C-3.34 7 -2.68 7 -2 7 C-1.34 4.69 -0.68 2.38 0 0 Z " fill="#653505" transform="translate(115,207)"/>
<path d="M0 0 C1.32 0 2.64 0 4 0 C3.67 1.32 3.34 2.64 3 4 C2.34 4 1.68 4 1 4 C-0.70680947 5.62553283 -2.37660195 7.29115995 -4 9 C-4.33 8.01 -4.66 7.02 -5 6 C-2.8125 2.8125 -2.8125 2.8125 0 0 Z " fill="#EFFCF8" transform="translate(204,180)"/>
<path d="M0 0 C3 3 3 3 3.14453125 5.62890625 C3.03496094 6.59699219 2.92539063 7.56507813 2.8125 8.5625 C2.71582031 9.53316406 2.61914062 10.50382813 2.51953125 11.50390625 C2 14 2 14 0 16 C0 10.72 0 5.44 0 0 Z " fill="#EF861B" transform="translate(125,154)"/>
<path d="M0 0 C3.96 0 7.92 0 12 0 C12.33 0.99 12.66 1.98 13 3 C8.71 2.67 4.42 2.34 0 2 C0 1.34 0 0.68 0 0 Z " fill="#EF801B" transform="translate(184,92)"/>
<path d="M0 0 C1.32 0 2.64 0 4 0 C4 1.98 4 3.96 4 6 C4.66 6 5.32 6 6 6 C6 7.32 6 8.64 6 10 C5.34 10 4.68 10 4 10 C3.67 10.66 3.34 11.32 3 12 C2.01 8.04 1.02 4.08 0 0 Z " fill="#FBF6E5" transform="translate(110,62)"/>
<path d="M0 0 C8.91 1.485 8.91 1.485 18 3 C18 3.33 18 3.66 18 4 C13.05 4 8.1 4 3 4 C3 3.34 3 2.68 3 2 C2.01 1.67 1.02 1.34 0 1 C0 0.67 0 0.34 0 0 Z " fill="#F2E9E1" transform="translate(85,221)"/>
<path d="M0 0 C0.33 0 0.66 0 1 0 C1 5.61 1 11.22 1 17 C0.34 17.33 -0.32 17.66 -1 18 C-2.4049404 14.10939581 -1.69513239 10.76907638 -1.0625 6.75 C-0.86785156 5.48671875 -0.67320312 4.2234375 -0.47265625 2.921875 C-0.31667969 1.95765625 -0.16070312 0.9934375 0 0 Z " fill="#FCEEDD" transform="translate(224,122)"/>
<path d="M0 0 C5.75 -0.125 5.75 -0.125 8 1 C7 3 7 3 5 6 C3.68 5.67 2.36 5.34 1 5 C0.67 3.35 0.34 1.7 0 0 Z " fill="#F0A918" transform="translate(153,106)"/>
<path d="M0 0 C-0.55774272 3.23490776 -1.37211508 4.97855006 -4 7 C-4.99 7 -5.98 7 -7 7 C-6.75 4.625 -6.75 4.625 -6 2 C-3.84898936 0.54286376 -2.59713506 0 0 0 Z " fill="#DF7426" transform="translate(39,32)"/>
<path d="M0 0 C3.375 -0.1875 3.375 -0.1875 7 0 C7.66 0.99 8.32 1.98 9 3 C5.42355152 4.2380014 2.66305234 3.74926071 -1 3 C-0.67 2.01 -0.34 1.02 0 0 Z " fill="#E5792C" transform="translate(129,215)"/>
<path d="M0 0 C0.28875 0.61875 0.5775 1.2375 0.875 1.875 C1.93720042 4.13325765 1.93720042 4.13325765 4 6 C2.68 8.31 1.36 10.62 0 13 C-1.32630565 8.85529486 -1.98384711 3.96769422 0 0 Z " fill="#ED9E3A" transform="translate(210,156)"/>
<path d="M0 0 C0.66 0.33 1.32 0.66 2 1 C1.01 3.64 0.02 6.28 -1 9 C-1.33 8.01 -1.66 7.02 -2 6 C-2.99 6 -3.98 6 -5 6 C-5.33 6.66 -5.66 7.32 -6 8 C-6 5 -6 5 -4.6875 3.61328125 C-3.125 2.40885417 -1.5625 1.20442708 0 0 Z " fill="#6B3C0F" transform="translate(16,103)"/>
<path d="M0 0 C1.2989839 0.90626784 2.58893167 1.82549537 3.875 2.75 C4.59429687 3.26046875 5.31359375 3.7709375 6.0546875 4.296875 C8.08570565 6.07503547 8.97855012 7.52701607 10 10 C8.35 9.67 6.7 9.34 5 9 C4.938125 8.38125 4.87625 7.7625 4.8125 7.125 C4.171081 4.72238859 4.171081 4.72238859 1.4375 3.75 C0.633125 3.5025 -0.17125 3.255 -1 3 C-0.67 2.01 -0.34 1.02 0 0 Z " fill="#DD8247" transform="translate(186,28)"/>
<path d="M0 0 C0.33 0.99 0.66 1.98 1 3 C1.66 3.66 2.32 4.32 3 5 C0.69 5.33 -1.62 5.66 -4 6 C-4 5.34 -4 4.68 -4 4 C-4.66 3.67 -5.32 3.34 -6 3 C-2.25 0 -2.25 0 0 0 Z " fill="#F2FAFC" transform="translate(171,210)"/>
<path d="M0 0 C0.66 0.33 1.32 0.66 2 1 C-0.31 4.3 -2.62 7.6 -5 11 C-5.33 9.68 -5.66 8.36 -6 7 C-5.34 7 -4.68 7 -4 7 C-3.67 5.35 -3.34 3.7 -3 2 C-2.01 2 -1.02 2 0 2 C0 1.34 0 0.68 0 0 Z " fill="#E79940" transform="translate(207,170)"/>
<path d="M0 0 C0.66 0 1.32 0 2 0 C0.58192622 4.47238653 -1.11304374 8.71146306 -3 13 C-4.1875 11.3125 -4.1875 11.3125 -5 9 C-3.75 6.5 -3.75 6.5 -2 4 C-1.31903578 2.67391178 -0.64669414 1.34313399 0 0 Z " fill="#FDEFE5" transform="translate(141,112)"/>
<path d="M0 0 C2.31 0 4.62 0 7 0 C7.103125 0.598125 7.20625 1.19625 7.3125 1.8125 C8.08876455 4.28243264 9.07088921 5.32251235 11 7 C7.87691494 6.39196574 5.80748338 5.37985958 3.25 3.5 C2.63640625 3.0565625 2.0228125 2.613125 1.390625 2.15625 C0.93171875 1.7746875 0.4728125 1.393125 0 1 C0 0.67 0 0.34 0 0 Z " fill="#E8841A" transform="translate(176,95)"/>
<path d="M0 0 C2.97 0 5.94 0 9 0 C9 0.99 9 1.98 9 3 C10.32 3.33 11.64 3.66 13 4 C8.18061476 4.23509196 4.53701494 3.45184478 0 2 C0 1.34 0 0.68 0 0 Z " fill="#F5FCF3" transform="translate(167,88)"/>
<path d="M0 0 C0.33 0 0.66 0 1 0 C0.67 4.29 0.34 8.58 0 13 C-0.66 13 -1.32 13 -2 13 C-2 12.34 -2 11.68 -2 11 C-2.66 10.67 -3.32 10.34 -4 10 C-2.68 6.7 -1.36 3.4 0 0 Z " fill="#FCF3D9" transform="translate(216,154)"/>
<path d="M0 0 C0.66 0.33 1.32 0.66 2 1 C2.29296875 7.0546875 2.29296875 7.0546875 2 9 C1.01 9.66 0.02 10.32 -1 11 C-1.66 9.35 -2.32 7.7 -3 6 C-2.34 5.34 -1.68 4.68 -1 4 C-0.3574765 1.93125966 -0.3574765 1.93125966 0 0 Z " fill="#ED771C" transform="translate(216,73)"/>
<path d="M0 0 C0.680625 0.391875 1.36125 0.78375 2.0625 1.1875 C2.0625 1.5175 2.0625 1.8475 2.0625 2.1875 C0.44078761 2.57647161 -1.18504925 2.94828298 -2.8125 3.3125 C-3.71742187 3.52132812 -4.62234375 3.73015625 -5.5546875 3.9453125 C-6.34101562 4.02523437 -7.12734375 4.10515625 -7.9375 4.1875 C-8.5975 3.5275 -9.2575 2.8675 -9.9375 2.1875 C-3.66057692 -1.0125 -3.66057692 -1.0125 0 0 Z " fill="#793C0E" transform="translate(75.9375,68.8125)"/>
<path d="M0 0 C0.66 0.33 1.32 0.66 2 1 C1.34 3.97 0.68 6.94 0 10 C-1.89213369 7.61426621 -3.02391783 5.92824652 -4 3 C-3.01 3 -2.02 3 -1 3 C-0.67 2.01 -0.34 1.02 0 0 Z " fill="#FAF6E4" transform="translate(214,53)"/>
<path d="M0 0 C4.83256305 0.41421969 6.82679218 2.46413986 10 6 C9.67 6.99 9.34 7.98 9 9 C7.8274869 8.04882866 6.66212985 7.08882991 5.5 6.125 C4.8503125 5.59132813 4.200625 5.05765625 3.53125 4.5078125 C3.0259375 4.01023437 2.520625 3.51265625 2 3 C2 2.34 2 1.68 2 1 C1.34 0.67 0.68 0.34 0 0 Z " fill="#E5881B" transform="translate(196,111)"/>
<path d="M0 0 C-1.26538369 0.84158536 -2.53753779 1.67299748 -3.8125 2.5 C-4.87404297 3.19609375 -4.87404297 3.19609375 -5.95703125 3.90625 C-8 5 -8 5 -11 5 C-11 4.34 -11 3.68 -11 3 C-7.8422016 0.07611259 -4.13574405 -2.06787203 0 0 Z " fill="#E58F29" transform="translate(43,85)"/>
<path d="M0 0 C4.49797113 1.68673918 8.72886302 3.81673892 13 6 C10 7 10 7 6.5 5.75 C1.88888889 3.44444444 1.88888889 3.44444444 0 1 C0 0.67 0 0.34 0 0 Z " fill="#DA8549" transform="translate(158,10)"/>
<path d="M0 0 C6.625 0.75 6.625 0.75 10 3 C7.03 3.66 4.06 4.32 1 5 C0.67 3.35 0.34 1.7 0 0 Z " fill="#FCECDB" transform="translate(73,2)"/>
<path d="M0 0 C-0.33 1.65 -0.66 3.3 -1 5 C-1.66 5 -2.32 5 -3 5 C-3.33 5.66 -3.66 6.32 -4 7 C-4.99 7 -5.98 7 -7 7 C-3.86206897 0 -3.86206897 0 0 0 Z " fill="#503114" transform="translate(99,192)"/>
<path d="M0 0 C0.99 0.99 1.98 1.98 3 3 C3 3.66 3 4.32 3 5 C1.824375 4.690625 1.824375 4.690625 0.625 4.375 C-0.674375 4.189375 -0.674375 4.189375 -2 4 C-2.66 4.66 -3.32 5.32 -4 6 C-5.32 5.67 -6.64 5.34 -8 5 C-4.04 2.525 -4.04 2.525 0 0 Z " fill="#F1ECE9" transform="translate(76,130)"/>
<path d="M0 0 C1.32 0 2.64 0 4 0 C3.01 2.97 2.02 5.94 1 9 C0.67 9 0.34 9 0 9 C-1.125 2.25 -1.125 2.25 0 0 Z " fill="#FBF1DF" transform="translate(131,129)"/>
<path d="M0 0 C2.92393881 0.62655832 5.44829129 1.4161808 8 3 C8.33 3.99 8.66 4.98 9 6 C8.34 6.66 7.68 7.32 7 8 C3.125 4.25 3.125 4.25 2 2 C1.34 2 0.68 2 0 2 C0 1.34 0 0.68 0 0 Z " fill="#FAA625" transform="translate(179,99)"/>
<path d="M0 0 C0.99 0.33 1.98 0.66 3 1 C3.33 5.95 3.66 10.9 4 16 C3.67 16 3.34 16 3 16 C2.01 10.72 1.02 5.44 0 0 Z " fill="#FCDFC6" transform="translate(220,80)"/>
<path d="M0 0 C1.98 1.32 3.96 2.64 6 4 C5.34 4.66 4.68 5.32 4 6 C1.27130593 5.96712417 -1.2966618 5.43602229 -4 5 C-3 3 -3 3 0 2 C0 1.34 0 0.68 0 0 Z " fill="#633105" transform="translate(80,73)"/>
<path d="M0 0 C2.0625 0.4375 2.0625 0.4375 4 1 C2.70525365 3.58949269 1.67336607 3.96035764 -1 5 C-3.75 5.125 -3.75 5.125 -6 5 C-6 4.34 -6 3.68 -6 3 C-5.195625 2.690625 -4.39125 2.38125 -3.5625 2.0625 C-1.10919595 1.23664655 -1.10919595 1.23664655 0 0 Z " fill="#E4842D" transform="translate(150,47)"/>
<path d="M0 0 C0.99 0 1.98 0 3 0 C2.67 2.31 2.34 4.62 2 7 C1.01 7.33 0.02 7.66 -1 8 C-0.67 5.36 -0.34 2.72 0 0 Z " fill="#E37A33" transform="translate(119,200)"/>
<path d="M0 0 C1.32 0.66 2.64 1.32 4 2 C1.36 3.65 -1.28 5.3 -4 7 C-4.33 5.68 -4.66 4.36 -5 3 C-3.35 2.34 -1.7 1.68 0 1 C0 0.67 0 0.34 0 0 Z " fill="#E3883D" transform="translate(176,201)"/>
<path d="M0 0 C0.33 0 0.66 0 1 0 C1.33 2.97 1.66 5.94 2 9 C1.01 9 0.02 9 -1 9 C-1.99 9.33 -2.98 9.66 -4 10 C-2.8905928 6.51329166 -1.73662334 3.22515763 0 0 Z " fill="#EB9F3E" transform="translate(140,118)"/>
<path d="M0 0 C0.99 0 1.98 0 3 0 C1.6302836 3.99500618 -0.25722422 6.80009492 -3 10 C-2.39009109 6.44219804 -1.4216319 3.3171411 0 0 Z " fill="#FCEBD5" transform="translate(19,45)"/>
<path d="M0 0 C2.16874252 0.50603992 3.99967627 0.99983813 6 2 C6 2.66 6 3.32 6 4 C5.01 4 4.02 4 3 4 C2.67 4.99 2.34 5.98 2 7 C1.34 7 0.68 7 0 7 C0 6.01 0 5.02 0 4 C0.66 4 1.32 4 2 4 C2 3.34 2 2.68 2 2 C1.34 2 0.68 2 0 2 C0 1.34 0 0.68 0 0 Z " fill="#E3792A" transform="translate(176,26)"/>
<path d="M0 0 C0.33 0.99 0.66 1.98 1 3 C-0.98 3.99 -2.96 4.98 -5 6 C-5.33 5.01 -5.66 4.02 -6 3 C-2.25 0 -2.25 0 0 0 Z " fill="#E4863B" transform="translate(166,208)"/>
<path d="M0 0 C1.32 0.66 2.64 1.32 4 2 C1.69 4.31 -0.62 6.62 -3 9 C-3.33 8.01 -3.66 7.02 -4 6 C-3.525625 5.566875 -3.05125 5.13375 -2.5625 4.6875 C-0.76313043 2.97690387 -0.76313043 2.97690387 0 0 Z " fill="#E68F3E" transform="translate(196,182)"/>
<path d="M0 0 C0.66 1.32 1.32 2.64 2 4 C0.71937515 5.7074998 -0.61767557 7.37373596 -2 9 C-2.66 9 -3.32 9 -4 9 C-2.94124926 5.59687262 -1.99097846 2.98646769 0 0 Z " fill="#F0A73C" transform="translate(145,109)"/>
<path d="M0 0 C0.66 0 1.32 0 2 0 C2 0.66 2 1.32 2 2 C2.763125 1.79375 3.52625 1.5875 4.3125 1.375 C7 1 7 1 10 3 C6.01803543 4.05404945 3.01804691 3.84098656 -1 3 C-0.67 2.01 -0.34 1.02 0 0 Z " fill="#623D23" transform="translate(91,220)"/>
<path d="M0 0 C2.0625 0.4375 2.0625 0.4375 4 1 C2.68 3.31 1.36 5.62 0 8 C-0.66 6.68 -1.32 5.36 -2 4 C-1.34 4 -0.68 4 0 4 C-0.33 3.01 -0.66 2.02 -1 1 C-0.67 0.67 -0.34 0.34 0 0 Z " fill="#F1E4D9" transform="translate(117,160)"/>
<path d="M0 0 C0.91058531 3.07322544 1.08886184 5.80097361 1 9 C-0.32 8.34 -1.64 7.68 -3 7 C-2.67 5.68 -2.34 4.36 -2 3 C-1.34 3 -0.68 3 0 3 C0 2.01 0 1.02 0 0 Z " fill="#F29717" transform="translate(139,124)"/>
<path d="M0 0 C3.26954202 0.56371414 4.82575883 1.49962266 7 4 C6.67 4.99 6.34 5.98 6 7 C3.95880212 5.38405168 1.95927063 3.7143618 0 2 C0 1.34 0 0.68 0 0 Z " fill="#FBA62F" transform="translate(188,106)"/>
<path d="M0 0 C2.29633824 3.44450737 2.54016485 5.93812283 3 10 C-0.91941982 6.69298952 -0.91941982 6.69298952 -1.3125 3.3125 C-1 1 -1 1 0 0 Z " fill="#DD7B38" transform="translate(218,75)"/>
<path d="M0 0 C2.6855594 2.6855594 3.06049974 5.37621328 4 9 C3.01 9.33 2.02 9.66 1 10 C0.63883954 8.5225254 0.28624952 7.04295325 -0.0625 5.5625 C-0.25972656 4.73878906 -0.45695313 3.91507812 -0.66015625 3.06640625 C-0.82837891 2.04353516 -0.82837891 2.04353516 -1 1 C-0.67 0.67 -0.34 0.34 0 0 Z " fill="#E3813C" transform="translate(214,65)"/>
<path d="M0 0 C1.32 0 2.64 0 4 0 C4.33 1.65 4.66 3.3 5 5 C3.68 5 2.36 5 1 5 C0.67 3.35 0.34 1.7 0 0 Z " fill="#ED7D21" transform="translate(195,60)"/>
<path d="M0 0 C2.64 0 5.28 0 8 0 C8 0.99 8 1.98 8 3 C5.125 3.1875 5.125 3.1875 2 3 C1.34 2.01 0.68 1.02 0 0 Z " fill="#F8FAF9" transform="translate(136,0)"/>
<path d="M0 0 C0.66 0 1.32 0 2 0 C2.6875 3.3125 2.6875 3.3125 3 7 C2.01 7.99 1.02 8.98 0 10 C0 6.7 0 3.4 0 0 Z " fill="#F3A01A" transform="translate(208,147)"/>
<path d="M0 0 C1.76462683 3.08809695 2 4.23312136 2 8 C1.34 8 0.68 8 0 8 C-1.4606285 5.35261084 -2 4.10551666 -2 1 C-1.34 0.67 -0.68 0.34 0 0 Z " fill="#EEA31F" transform="translate(216,144)"/>
<path d="M0 0 C3 3 3 3 3.1875 6.6875 C3.125625 7.780625 3.06375 8.87375 3 10 C2.01 10.495 2.01 10.495 1 11 C0.67 7.37 0.34 3.74 0 0 Z " fill="#E9AA2A" transform="translate(215,130)"/>
<path d="M0 0 C0.99 0 1.98 0 3 0 C3 2.64 3 5.28 3 8 C2.67 7.34 2.34 6.68 2 6 C1.34 6 0.68 6 0 6 C0 4.02 0 2.04 0 0 Z " fill="#F37518" transform="translate(218,128)"/>
<path d="M0 0 C0.99 0 1.98 0 3 0 C2.34 3.3 1.68 6.6 1 10 C0.67 10 0.34 10 0 10 C0 6.7 0 3.4 0 0 Z " fill="#E48243" transform="translate(221,128)"/>
<path d="M0 0 C1.98 0 3.96 0 6 0 C5.67 1.32 5.34 2.64 5 4 C3.68 4 2.36 4 1 4 C0.67 2.68 0.34 1.36 0 0 Z " fill="#E67C32" transform="translate(196,92)"/>
<path d="M0 0 C0.33 1.65 0.66 3.3 1 5 C0.01 5 -0.98 5 -2 5 C-2 4.34 -2 3.68 -2 3 C-3.32 2.67 -4.64 2.34 -6 2 C-2.25 0 -2.25 0 0 0 Z " fill="#5A3518" transform="translate(43,87)"/>
<path d="M0 0 C-0.33 0.99 -0.66 1.98 -1 3 C-3.97 3 -6.94 3 -10 3 C-6.26223701 0.50815801 -4.5227786 0 0 0 Z " fill="#EFFDFE" transform="translate(198,86)"/>
<path d="M0 0 C0.66 2.97 1.32 5.94 2 9 C-0.64752004 6.42215154 -2.94432065 4.08351902 -5 1 C-1.125 0 -1.125 0 0 0 Z " fill="#FCEDD1" transform="translate(200,35)"/>
<path d="M0 0 C0 1.32 0 2.64 0 4 C-2.97 3.67 -5.94 3.34 -9 3 C-6.31795079 0.31795079 -3.73391546 0 0 0 Z " fill="#E08346" transform="translate(92,2)"/>
<path d="M0 0 C-0.33 0.99 -0.66 1.98 -1 3 C-3.97 3 -6.94 3 -10 3 C-7.14414946 0.14414946 -3.95889689 0 0 0 Z " fill="#E88B3A" transform="translate(184,92)"/>
<path d="M0 0 C0.66 0 1.32 0 2 0 C2 2.31 2 4.62 2 7 C1.01 6.67 0.02 6.34 -1 6 C-1.042721 4.33388095 -1.04063832 2.66617115 -1 1 C-0.67 0.67 -0.34 0.34 0 0 Z " fill="#DE7837" transform="translate(216,85)"/>
<path d="M0 0 C0.66 0 1.32 0 2 0 C2 0.99 2 1.98 2 3 C1.34 3 0.68 3 0 3 C-0.12375 3.639375 -0.2475 4.27875 -0.375 4.9375 C-0.58125 5.618125 -0.7875 6.29875 -1 7 C-1.99 7.495 -1.99 7.495 -3 8 C-2.45276317 4.62537285 -1.9451 2.91765 0 0 Z " fill="#EFFCFB" transform="translate(110,77)"/>
<path d="M0 0 C0 1.65 0 3.3 0 5 C-2 6 -2 6 -5 7 C-4.39816251 4.97954558 -3.72693904 2.97888961 -3 1 C-1 0 -1 0 0 0 Z " fill="#ED7218" transform="translate(30,39)"/>
<path d="M0 0 C2.31 0.33 4.62 0.66 7 1 C7 1.99 7 2.98 7 4 C6.01 4.495 6.01 4.495 5 5 C2 4 2 4 0.8125 1.9375 C0.544375 1.298125 0.27625 0.65875 0 0 Z " fill="#FCF4ED" transform="translate(192,32)"/>
<path d="M0 0 C0.33 0.66 0.66 1.32 1 2 C-1.70879335 3.35439668 -4.00933268 3.06501451 -7 3 C-7 2.34 -7 1.68 -7 1 C-4.53721199 -0.231394 -2.7204945 -0.07159196 0 0 Z " fill="#F8F5F3" transform="translate(67,8)"/>
<path d="M0 0 C1.98 0.495 1.98 0.495 4 1 C4 1.99 4 2.98 4 4 C2.35 3.67 0.7 3.34 -1 3 C-0.67 2.01 -0.34 1.02 0 0 Z " fill="#F6B84A" transform="translate(161,96)"/>
<path d="M0 0 C1.65 1.65 3.3 3.3 5 5 C4.01 5 3.02 5 2 5 C1.34 5.66 0.68 6.32 0 7 C-0.38133299 5.0085944 -0.71325582 3.00720923 -1 1 C-0.67 0.67 -0.34 0.34 0 0 Z " fill="#683206" transform="translate(92,85)"/>
<path d="M0 0 C0.66 0.99 1.32 1.98 2 3 C1.01 3.495 1.01 3.495 0 4 C-0.72159424 5.64363134 -1.39351421 7.31050386 -2 9 C-4 5.25 -4 5.25 -4 3 C-3.01 2.67 -2.02 2.34 -1 2 C-0.67 1.34 -0.34 0.68 0 0 Z " fill="#E87F36" transform="translate(212,61)"/>
<path d="M0 0 C3 1 3 1 4.1875 3.0625 C4.455625 3.701875 4.72375 4.34125 5 5 C2.36 4.34 -0.28 3.68 -3 3 C-2.01 2.67 -1.02 2.34 0 2 C0 1.34 0 0.68 0 0 Z " fill="#FAE9DE" transform="translate(149,3)"/>
<path d="M0 0 C1.65 0.33 3.3 0.66 5 1 C5 1.66 5 2.32 5 3 C1.7 3 -1.6 3 -5 3 C-5 2.67 -5 2.34 -5 2 C-3.35 2 -1.7 2 0 2 C0 1.34 0 0.68 0 0 Z " fill="#532605" transform="translate(105,221)"/>
<path d="M0 0 C1.65 0 3.3 0 5 0 C4.34 1.32 3.68 2.64 3 4 C2.01 4 1.02 4 0 4 C0 2.68 0 1.36 0 0 Z " fill="#F1FBF4" transform="translate(173,207)"/>
<path d="M0 0 C0.66 0.33 1.32 0.66 2 1 C1.67 2.32 1.34 3.64 1 5 C-0.65 4.67 -2.3 4.34 -4 4 C-4 3.34 -4 2.68 -4 2 C-2.125 0.9375 -2.125 0.9375 0 0 Z " fill="#5E3F24" transform="translate(83,203)"/>
<path d="M0 0 C0.33 0.66 0.66 1.32 1 2 C0.34 2.66 -0.32 3.32 -1 4 C-1.33 4.66 -1.66 5.32 -2 6 C-2.99 6.33 -3.98 6.66 -5 7 C-5 6.01 -5 5.02 -5 4 C-2.5 1.8125 -2.5 1.8125 0 0 Z " fill="#4B2E0F" transform="translate(106,184)"/>
<path d="M0 0 C0.66 0.33 1.32 0.66 2 1 C0.25 6.75 0.25 6.75 -2 9 C-2.33 8.01 -2.66 7.02 -3 6 C-2.34 6 -1.68 6 -1 6 C-0.67 4.02 -0.34 2.04 0 0 Z " fill="#FBEBE8" transform="translate(124,148)"/>
<path d="M0 0 C1.32 0 2.64 0 4 0 C4.33 1.32 4.66 2.64 5 4 C3.35 3.67 1.7 3.34 0 3 C0 2.01 0 1.02 0 0 Z " fill="#EFFCFB" transform="translate(2,108)"/>
<path d="M0 0 C0.6875 1.75 0.6875 1.75 1 4 C-0.3125 6.25 -0.3125 6.25 -2 8 C-2.66 8 -3.32 8 -4 8 C-2.87548273 5.0280615 -1.77706209 2.66559313 0 0 Z " fill="#D8803F" transform="translate(21,47)"/>
<path d="M0 0 C1.32 0 2.64 0 4 0 C4.33 0.99 4.66 1.98 5 3 C4.67 3.66 4.34 4.32 4 5 C3.34 5 2.68 5 2 5 C2 4.34 2 3.68 2 3 C1.34 3 0.68 3 0 3 C0 2.01 0 1.02 0 0 Z " fill="#E87619" transform="translate(194,40)"/>
<path d="M0 0 C0.99 0.33 1.98 0.66 3 1 C3 1.66 3 2.32 3 3 C3.99 3.33 4.98 3.66 6 4 C4.68 4.99 3.36 5.98 2 7 C1.34 4.69 0.68 2.38 0 0 Z " fill="#FCF9EF" transform="translate(23,34)"/>
<path d="M0 0 C2.97 0.495 2.97 0.495 6 1 C3.61426621 2.89213369 1.92824652 4.02391783 -1 5 C-0.67 3.35 -0.34 1.7 0 0 Z " fill="#FEE9DA" transform="translate(58,10)"/>
</svg>
