<?xml version="1.0" standalone="no"?>
<!DOCTYPE svg PUBLIC "-//W3C//DTD SVG 20010904//EN"
 "http://www.w3.org/TR/2001/REC-SVG-20010904/DTD/svg10.dtd">
<svg version="1.0" xmlns="http://www.w3.org/2000/svg"
 width="608.000000pt" height="410.000000pt" viewBox="0 0 608.000000 410.000000"
 preserveAspectRatio="xMidYMid meet">

<g transform="translate(0.000000,410.000000) scale(0.100000,-0.100000)"
fill="#000000" stroke="none">
<path d="M3543 2324 c-61 -22 -127 -85 -152 -144 -34 -78 -31 -200 6 -276 50
-102 122 -144 247 -144 85 0 146 27 146 66 0 33 -22 39 -70 20 -22 -9 -58 -16
-81 -16 -50 0 -127 38 -157 79 -52 71 -50 207 4 278 52 69 154 94 239 59 48
-21 65 -15 65 22 0 23 -7 32 -37 46 -51 25 -156 30 -210 10z"/>
<path d="M4573 2328 c-17 -6 -44 -24 -60 -40 -25 -26 -28 -36 -28 -98 0 -62 3
-71 29 -99 17 -17 68 -50 115 -74 56 -28 90 -52 102 -72 25 -39 24 -48 -7 -84
-23 -28 -32 -31 -80 -31 -48 0 -58 4 -93 35 -43 39 -53 42 -71 20 -19 -23 6
-72 51 -101 31 -19 52 -24 108 -24 123 0 181 49 181 151 0 83 -21 108 -140
165 -100 49 -120 68 -120 115 0 29 6 42 26 58 35 28 67 26 112 -4 61 -41 99
-25 73 31 -22 50 -123 76 -198 52z"/>
<path d="M776 2314 c-14 -13 -16 -51 -16 -264 0 -230 1 -249 19 -271 16 -20
23 -22 38 -13 15 10 18 28 21 128 l3 117 127 -3 127 -3 5 -114 c4 -92 8 -116
22 -124 12 -8 21 -7 32 2 14 12 16 49 16 276 0 280 -3 295 -49 280 -19 -6 -21
-16 -23 -123 l-3 -117 -125 0 -125 0 -3 115 c-3 112 -8 129 -39 130 -6 0 -19
-7 -27 -16z"/>
<path d="M1502 2322 c-6 -5 -25 -45 -41 -91 l-29 -82 18 -57 c10 -33 20 -51
23 -42 3 8 15 47 28 85 13 39 26 74 29 78 7 7 22 -38 108 -313 19 -63 40 -121
45 -127 14 -20 45 -15 57 7 9 17 -4 65 -71 263 -44 133 -88 252 -95 265 -14
22 -48 29 -72 14z"/>
<path d="M1887 2323 c-10 -9 -9 -51 1 -57 5 -3 68 -6 140 -7 73 0 132 -3 132
-6 0 -2 -20 -35 -45 -73 -25 -38 -45 -71 -45 -74 0 -3 -43 -74 -96 -158 -71
-114 -93 -157 -86 -168 7 -12 42 -16 187 -18 122 -2 182 1 191 9 16 13 19 45
4 54 -5 3 -67 6 -137 6 -70 1 -131 3 -135 5 -3 2 29 61 72 132 197 320 203
331 190 347 -10 12 -45 15 -190 15 -97 0 -180 -3 -183 -7z"/>
<path d="M2482 2318 c-7 -7 -12 -22 -12 -35 l0 -23 169 0 c93 0 176 3 185 6 9
3 16 14 16 23 0 37 -20 41 -185 41 -112 0 -165 -4 -173 -12z"/>
<path d="M3003 2318 c-13 -22 -17 -512 -4 -537 11 -20 19 -21 144 -21 137 0
157 5 157 42 0 27 -40 38 -141 38 l-89 0 0 233 c0 168 -3 236 -12 245 -16 16
-45 15 -55 0z"/>
<path d="M4108 2313 c-8 -10 -25 -50 -38 -89 -22 -67 -23 -75 -10 -128 12 -52
30 -76 30 -41 0 15 46 155 54 162 2 2 25 -62 51 -144 94 -299 98 -308 124
-308 39 0 46 25 27 86 -9 30 -21 63 -26 74 -4 11 -35 101 -67 199 -32 99 -64
185 -71 193 -19 18 -56 16 -74 -4z"/>
<path d="M4912 2318 c-33 -33 10 -68 85 -68 l53 0 0 -233 c0 -234 3 -257 36
-257 7 0 20 7 28 16 14 13 16 50 16 245 l0 229 43 1 c23 1 46 1 50 0 37 -6 65
60 31 73 -31 12 -329 7 -342 -6z"/>
<path d="M2380 2045 l0 -35 228 2 227 3 0 30 0 30 -227 3 -228 2 0 -35z"/>
<path d="M1416 1947 c3 -10 9 -15 12 -12 3 3 0 11 -7 18 -10 9 -11 8 -5 -6z"/>
<path d="M2477 1833 c-12 -11 -7 -41 9 -57 13 -13 43 -16 173 -16 109 0 161 4
169 12 18 18 14 46 -7 58 -21 11 -333 14 -344 3z"/>
<path d="M5261 1805 c0 -18 24 -42 37 -38 6 3 11 14 11 26 -1 17 -2 18 -6 5
-2 -10 -8 -18 -13 -18 -5 0 -14 8 -19 18 -6 9 -10 13 -10 7z"/>
</g>
</svg>
