<?xml version="1.0" standalone="no"?>
<!DOCTYPE svg PUBLIC "-//W3C//DTD SVG 20010904//EN"
 "http://www.w3.org/TR/2001/REC-SVG-20010904/DTD/svg10.dtd">
<svg version="1.0" xmlns="http://www.w3.org/2000/svg"
 width="1090.000000pt" height="736.000000pt" viewBox="0 0 1090.000000 736.000000"
 preserveAspectRatio="xMidYMid meet">

<g transform="translate(0.000000,736.000000) scale(0.100000,-0.100000)"
fill="#000000" stroke="none">
<path d="M0 3680 l0 -3680 5450 0 5450 0 0 3680 0 3680 -5450 0 -5450 0 0
-3680z m6713 500 c81 -30 111 -59 111 -103 0 -41 -18 -67 -47 -67 -11 0 -49
11 -84 25 -65 27 -173 35 -238 19 -99 -24 -182 -93 -229 -193 -29 -62 -31 -73
-31 -181 1 -138 21 -201 91 -279 65 -72 136 -104 243 -109 71 -3 97 0 146 18
33 12 76 23 95 24 29 1 37 -4 48 -28 22 -45 -2 -85 -70 -118 -70 -35 -126 -47
-208 -48 -224 -1 -410 142 -476 365 -22 74 -25 245 -5 325 45 182 173 314 354
365 75 21 225 14 300 -15z m1781 0 c54 -26 126 -101 126 -131 0 -59 -72 -77
-131 -34 -53 39 -95 55 -141 55 -70 0 -134 -50 -139 -110 -9 -99 20 -130 216
-224 219 -106 265 -159 265 -306 0 -124 -52 -206 -162 -255 -116 -52 -262 -45
-366 18 -96 58 -140 149 -93 196 34 34 62 26 116 -30 61 -63 97 -79 175 -79
103 0 167 43 177 118 13 94 -19 127 -217 227 -218 111 -267 174 -258 333 9
160 135 258 316 248 46 -3 89 -12 116 -26z m-7034 -12 c19 -20 20 -34 20 -220
l0 -198 230 0 230 0 0 202 c0 173 2 204 17 220 23 25 77 24 103 -4 20 -21 20
-33 20 -495 0 -460 -1 -474 -20 -493 -24 -24 -77 -26 -102 -3 -16 15 -18 35
-18 220 l0 203 -230 0 -230 0 0 -200 c0 -187 -1 -201 -20 -220 -24 -24 -77
-26 -102 -3 -17 15 -18 44 -18 496 0 433 2 482 17 499 23 25 77 24 103 -4z
m1339 -1 c23 -25 321 -901 321 -944 0 -52 -80 -84 -120 -48 -9 8 -72 194 -141
415 -68 220 -127 400 -130 400 -3 0 -30 -76 -60 -169 -29 -93 -56 -167 -59
-165 -3 3 -19 49 -36 102 l-30 97 48 144 c26 80 57 155 70 168 31 33 105 33
137 0z m1242 13 c11 -7 19 -21 19 -38 0 -18 -82 -162 -241 -422 -133 -217
-243 -401 -246 -407 -4 -10 45 -13 225 -13 217 0 231 -1 256 -21 30 -24 34
-63 10 -97 -15 -22 -15 -22 -348 -22 -354 0 -356 0 -356 50 1 15 100 186 250
430 l249 405 -237 5 c-130 3 -238 7 -239 8 -1 1 -9 9 -17 18 -21 20 -20 73 1
96 15 17 39 18 335 18 201 0 326 -4 339 -10z m1043 -12 c23 -32 20 -65 -9 -94
l-24 -24 -313 2 -313 3 1 47 c0 31 6 54 19 68 17 19 29 20 321 20 302 0 303 0
318 -22z m406 2 c19 -19 20 -33 20 -445 l0 -425 184 0 c170 0 185 -1 210 -21
30 -24 34 -63 10 -97 -15 -22 -18 -22 -261 -22 -215 0 -249 2 -265 17 -17 15
-18 44 -18 495 0 465 1 479 20 498 11 11 33 20 50 20 17 0 39 -9 50 -20z
m2039 -3 c23 -25 321 -901 321 -944 0 -54 -87 -86 -122 -45 -9 9 -71 196 -139
414 -68 219 -127 394 -131 390 -4 -4 -31 -81 -61 -172 -30 -91 -57 -158 -60
-150 -27 77 -57 179 -57 195 0 38 90 288 112 312 31 33 105 33 137 0z m1956 3
c26 -29 24 -79 -4 -102 -19 -15 -41 -18 -132 -18 l-109 0 0 -425 c0 -412 -1
-426 -20 -445 -27 -27 -81 -26 -106 1 -18 20 -19 44 -22 445 l-3 424 -103 0
c-89 0 -107 3 -130 21 -32 25 -35 70 -6 99 19 19 33 20 318 20 287 0 300 -1
317 -20z m-4411 -441 c19 -15 26 -30 26 -54 0 -24 -7 -39 -26 -54 -26 -20 -37
-21 -420 -21 l-394 0 0 75 0 75 394 0 c383 0 394 -1 420 -21z m-2551 -162 c15
-50 28 -98 27 -105 -1 -37 -75 -260 -93 -279 -39 -43 -107 -18 -107 40 0 31
130 437 140 437 3 0 18 -42 33 -93z m4734 -4 l29 -97 -42 -140 c-25 -82 -50
-146 -60 -153 -42 -31 -104 1 -104 54 0 30 131 433 141 433 3 0 19 -44 36 -97z
m-2194 -274 c12 -7 25 -17 29 -23 13 -20 8 -69 -9 -88 -15 -17 -38 -18 -319
-18 -302 0 -303 0 -318 22 -9 13 -16 43 -16 70 l0 48 306 0 c211 0 312 -4 327
-11z m4397 -39 c0 -5 -4 -10 -10 -10 -5 0 -10 -18 -10 -40 0 -22 -4 -40 -10
-40 -5 0 -10 18 -10 40 0 22 -4 40 -10 40 -5 0 -10 5 -10 10 0 6 14 10 30 10
17 0 30 -4 30 -10z m53 -32 l14 -43 13 43 c18 57 30 53 29 -10 -2 -48 -2 -50
-8 -18 l-7 35 -8 -32 c-4 -18 -12 -33 -17 -33 -6 0 -15 15 -22 33 l-12 32 -6
-35 c-6 -31 -7 -29 -8 18 -1 63 12 67 32 10z"/>
</g>
</svg>
