<svg xmlns="http://www.w3.org/2000/svg" xmlns:xlink="http://www.w3.org/1999/xlink" version="1.1" x="0px" y="0px" viewBox="0 0 100 125" enable-background="new 0 0 100 100" xml:space="preserve"><g><g><path d="M50,4C24.636,4,4,24.636,4,50s20.636,46,46,46s46-20.636,46-46S75.364,4,50,4z M50,89c-21.505,0-39-17.495-39-39    s17.495-39,39-39s39,17.495,39,39S71.505,89,50,89z"/><polygon points="55,31.107 45,31.107 45,45 31.107,45 31.107,55 45,55 45,68.893 55,68.893 55,55 68.893,55 68.893,45 55,45   "/></g></g><text x="0" y="115" fill="#000000" font-size="5px" font-weight="bold" font-family="'Helvetica Neue', Helvetica, Arial-Unicode, Arial, Sans-serif">Created by Robert Won</text><text x="0" y="120" fill="#000000" font-size="5px" font-weight="bold" font-family="'Helvetica Neue', Helvetica, Arial-Unicode, Arial, Sans-serif">from the Noun Project</text></svg>