<?xml version="1.0" encoding="UTF-8"?>
<svg version="1.1" xmlns="http://www.w3.org/2000/svg" width="515" height="485">
<path d="M0 0 C1.010625 0.6084375 2.02125 1.216875 3.0625 1.84375 C11.39826117 7.00829768 18.8849988 12.74847451 26.1171875 19.36328125 C27.90936558 21.05855154 27.90936558 21.05855154 30 22 C30 22.66 30 23.32 30 24 C33.55112991 22.81629003 33.79875109 22.13615118 35.59375 18.9921875 C36.06683594 18.16976562 36.53992188 17.34734375 37.02734375 16.5 C37.75630859 15.200625 37.75630859 15.200625 38.5 13.875 C39.22896484 12.61042969 39.22896484 12.61042969 39.97265625 11.3203125 C42.63659524 6.64571656 44.99706552 1.99380286 47 -3 C47.99 -2.67 48.98 -2.34 50 -2 C50.921875 0.38671875 50.921875 0.38671875 51.75 3.6875 C52.08878707 4.97752947 52.4315036 6.26653095 52.77734375 7.5546875 C53.06327393 8.62154785 53.06327393 8.62154785 53.35498047 9.70996094 C54.54922061 13.94992027 55.94954531 18.12443708 57.3125 22.3125 C62.78096994 39.38205455 67.95695653 56.37506216 70.6706543 74.12670898 C71.3904396 78.80207892 72.23990454 83.42116882 73.33984375 88.0234375 C73.5524585 88.92239746 73.76507324 89.82135742 73.98413086 90.74755859 C75.26973856 93.5980793 76.44539732 94.13434917 79.3125 95.25 C80.18261719 95.5078125 81.05273438 95.765625 81.94921875 96.03125 C85.72966908 97.2317003 89.10636292 98.93814113 92.625 100.75 C93.25317627 101.0687207 93.88135254 101.38744141 94.52856445 101.71582031 C96.02102121 102.47332852 97.51080875 103.2360921 99 104 C99 104.66 99 105.32 99 106 C99.81791016 106.36544922 99.81791016 106.36544922 100.65234375 106.73828125 C111.86193615 112.76273773 119.05349379 122.7034473 126 133 C126.70125 134.0003125 127.4025 135.000625 128.125 136.03125 C140.30027681 155.30877162 143.1087981 181.40653862 138.875 203.4375 C138.29931464 205.63849242 137.67136938 207.82628328 137 210 C136.70198486 210.99821777 136.70198486 210.99821777 136.39794922 212.01660156 C132.42719395 225.09778635 126.8207489 236.43441974 117.34765625 246.51171875 C115.89950215 247.97694963 115.89950215 247.97694963 115 250 C114.34 250 113.68 250 113 250 C113 250.66 113 251.32 113 252 C112.34 252 111.68 252 111 252 C111 252.66 111 253.32 111 254 C110.34 254 109.68 254 109 254 C109 254.66 109 255.32 109 256 C108.34 256 107.68 256 107 256 C107 256.66 107 257.32 107 258 C105.67139728 258.9440072 104.33004168 259.87245055 102.94921875 260.73828125 C101.54528094 261.6470426 100.17602101 262.61018985 98.83203125 263.60546875 C81.34361225 276.52921069 61.91886262 280.1667624 40.63505554 280.13371277 C39.54522631 280.13597833 38.45539708 280.13824388 37.33254272 280.14057809 C33.70955847 280.14686817 30.08661212 280.14609196 26.46362305 280.14526367 C23.85420687 280.14825825 21.24479113 280.15166147 18.63537598 280.15544128 C12.30015008 280.16371394 5.9649335 280.16649457 -0.37029735 280.16705366 C-5.52390163 280.16753036 -10.67750287 280.16959274 -15.83110619 280.17275429 C-30.4703189 280.181551 -45.10952432 280.18617511 -59.7487397 280.18542381 C-60.93018508 280.18536388 -60.93018508 280.18536388 -62.13549805 280.18530273 C-62.92409933 280.18526185 -63.71270061 280.18522097 -64.5251989 280.18517885 C-77.3026104 280.18477248 -90.07999241 280.19434229 -102.85739539 280.2084411 C-116.0043776 280.22283229 -129.15134545 280.2297098 -142.29833573 280.22884732 C-149.66846507 280.22851634 -157.03856348 280.23122014 -164.40868568 280.24202538 C-171.34198949 280.25212583 -178.27522716 280.25176711 -185.20853424 280.24450874 C-187.74566684 280.24346629 -190.28280356 280.24580551 -192.81992912 280.2518692 C-217.44445084 280.30688658 -217.44445084 280.30688658 -229 278 C-230.26848518 277.75138356 -230.26848518 277.75138356 -231.56259632 277.49774456 C-247.28749304 274.25295011 -261.96955501 266.6233754 -274 256 C-275.22396484 254.95392578 -275.22396484 254.95392578 -276.47265625 253.88671875 C-298.44807206 234.69551852 -311.85385419 209.22990135 -314 180 C-314.78216424 163.24171517 -312.75810442 147.77342372 -307 132 C-306.56816406 130.80375 -306.13632812 129.6075 -305.69140625 128.375 C-300.62805937 115.52299206 -290.05769945 97.75693234 -277.6796875 90.671875 C-277.12539063 90.45015625 -276.57109375 90.2284375 -276 90 C-276 89.34 -276 88.68 -276 88 C-275.34 88 -274.68 88 -274 88 C-274 87.34 -274 86.68 -274 86 C-271.06092329 83.62221421 -267.80136934 81.67049174 -264.625 79.625 C-263.75488281 79.0475 -262.88476562 78.47 -261.98828125 77.875 C-254.25872252 72.85937523 -246.34712423 69.59377837 -237.5625 66.875 C-236.57378906 66.56304687 -235.58507812 66.25109375 -234.56640625 65.9296875 C-224.71287849 63.36107895 -215.36388811 62.66178906 -205.1875 62.6875 C-203.92357422 62.67138672 -202.65964844 62.65527344 -201.35742188 62.63867188 C-192.54724951 62.63416078 -184.52922375 63.83910623 -176 66 C-174.69349487 66.31686768 -174.69349487 66.31686768 -173.3605957 66.64013672 C-171.57002073 67.07854112 -169.78414533 67.53612221 -168 68 C-178.97101495 59.25785942 -195.35181953 56.50831212 -209 56 C-207.6313959 49.36753397 -203.58761347 42.9040006 -199 38 C-198.34 38 -197.68 38 -197 38 C-196.62875 37.195625 -196.62875 37.195625 -196.25 36.375 C-194.69347463 33.4176018 -192.96564327 30.70275949 -191 28 C-190.34 28 -189.68 28 -189 28 C-188.77570313 27.42894531 -188.55140625 26.85789063 -188.3203125 26.26953125 C-186.61637526 23.34057404 -184.53824573 21.77581107 -181.875 19.6875 C-178.4641901 16.98191607 -175.14067459 14.26020667 -171.9375 11.3125 C-161.42830023 2 -161.42830023 2 -156 2 C-156 1.34 -156 0.68 -156 0 C-145.01805358 -5.90509689 -133.91995322 -10.44174989 -122.07006836 -14.31591797 C-120.39970846 -14.86791094 -118.74235349 -15.45916759 -117.08984375 -16.0625 C-78.60380484 -27.73967995 -34.09307262 -20.7967743 0 0 Z M46 17 C44.836827 18.84739241 43.67837043 20.69791073 42.54296875 22.5625 C40.2949032 26.11387443 37.82416753 29.49805496 35.35546875 32.8984375 C33.81932662 34.86332651 33.81932662 34.86332651 34 37 C33.34 37 32.68 37 32 37 C32 37.66 32 38.32 32 39 C30.68 39.66 29.36 40.32 28 41 C28 41.66 28 42.32 28 43 C27.41734375 43.25136719 26.8346875 43.50273437 26.234375 43.76171875 C23.72541059 45.1521763 22.19453894 46.71127301 20.25 48.8125 C17.08551795 52.05872144 14.02509954 54.46088587 10.1171875 56.7265625 C7.72035458 58.16820001 5.5070881 59.786148 3.25 61.4375 C-24.04347206 80.56766773 -56.46082998 84.92805124 -88.85839844 85.95361328 C-104.09487555 86.45508976 -119.40152238 88.03541611 -133.3125 94.75 C-134.0432373 95.08854004 -134.77397461 95.42708008 -135.52685547 95.77587891 C-142.26446582 98.97171724 -149.03097064 102.507409 -155 107 C-155 107.66 -155 108.32 -155 109 C-155.66 109 -156.32 109 -157 109 C-157 109.66 -157 110.32 -157 111 C-157.66 111 -158.32 111 -159 111 C-159 111.66 -159 112.32 -159 113 C-159.66 113 -160.32 113 -161 113 C-161 113.66 -161 114.32 -161 115 C-161.66 115 -162.32 115 -163 115 C-168.86138904 120.68814601 -173.53335516 127.09589609 -176.21875 134.81640625 C-177.05447419 137.15225537 -178.02418064 139.40689187 -179 141.6875 C-185.42733403 157.92887867 -186.40289133 175.60373524 -180 192 C-177.69215073 196.88163307 -174.91976831 201.46443757 -172 206 C-171.34 206 -170.68 206 -170 206 C-169.75507813 206.58910156 -169.51015625 207.17820312 -169.2578125 207.78515625 C-166.71613058 212.26072659 -162.8168364 214.45023525 -158 216 C-153.23879371 215.80619952 -148.81250165 214.75428414 -144.22558594 213.55859375 C-141.19156464 212.79709301 -138.13198713 212.20419074 -135.0637207 211.59863281 C-126.82021043 209.95552073 -118.69025431 207.95799676 -110.58081055 205.75048828 C-106.07416745 204.52479269 -101.56719935 203.43777926 -96.99243164 202.49438477 C-93.8406597 201.71233132 -90.96848748 200.30196819 -88 199 C-86.48537395 198.52155314 -84.9637452 198.06497622 -83.4375 197.625 C-70.16797037 193.71398074 -58.24008218 188.36983868 -46 182 C-46 181.34 -46 180.68 -46 180 C-45.21625 179.79375 -44.4325 179.5875 -43.625 179.375 C-38.75264698 177.5268661 -34.22073355 175.0696244 -30 172 C-30 171.34 -30 170.68 -30 170 C-29.443125 169.7525 -28.88625 169.505 -28.3125 169.25 C-25.85901229 168.01400889 -25.85901229 168.01400889 -23.4375 165.9375 C-21 164 -21 164 -18 163 C-18 162.34 -18 161.68 -18 161 C-16.68 160.34 -15.36 159.68 -14 159 C-14 158.34 -14 157.68 -14 157 C-13.45988281 156.77441406 -12.91976562 156.54882812 -12.36328125 156.31640625 C-9.26405031 154.59005777 -6.77635131 152.33157495 -4.1875 149.9375 C-3.65995117 149.451604 -3.13240234 148.96570801 -2.58886719 148.46508789 C1.75304674 144.38605808 5.83170483 140.07596586 9 135 C9 134.34 9 133.68 9 133 C9.60811523 132.7436377 10.21623047 132.48727539 10.84277344 132.22314453 C13.26014927 130.85249572 14.08881175 129.78387026 15.515625 127.4296875 C15.9585791 126.70539551 16.4015332 125.98110352 16.85791016 125.23486328 C17.3172998 124.4561084 17.77668945 123.67735352 18.25 122.875 C18.96808838 121.67786377 18.96808838 121.67786377 19.70068359 120.45654297 C27.90473301 107.37559719 27.90473301 107.37559719 33 93 C33.66 93 34.32 93 35 93 C29.59276744 112.21293272 22.79601995 130.13121883 12 147 C12 147.66 12 148.32 12 149 C11.34 149 10.68 149 10 149 C8.36570249 151.0944968 6.85832766 153.17782091 5.375 155.375 C4.74464844 156.27992188 4.74464844 156.27992188 4.1015625 157.203125 C1.76639677 160.31713871 1.76639677 160.31713871 1 164 C-0.98 164.99 -0.98 164.99 -3 166 C-3 166.66 -3 167.32 -3 168 C-3.66 168 -4.32 168 -5 168 C-5 168.66 -5 169.32 -5 170 C-5.66 170 -6.32 170 -7 170 C-7 170.66 -7 171.32 -7 172 C-7.66 172 -8.32 172 -9 172 C-12.02517909 175.05558423 -12.02517909 175.05558423 -13 179 C-13.55171875 179.2475 -14.1034375 179.495 -14.671875 179.75 C-17.45136707 181.24234474 -19.7814707 183.03672523 -22.25 185 C-23.14203125 185.70125 -24.0340625 186.4025 -24.953125 187.125 C-25.62859375 187.74375 -26.3040625 188.3625 -27 189 C-27 189.66 -27 190.32 -27 191 C-27.66 191 -28.32 191 -29 191 C-29 191.66 -29 192.32 -29 193 C-29.70769531 193.25265625 -30.41539062 193.5053125 -31.14453125 193.765625 C-34.2876375 195.12434124 -36.86861752 196.80801955 -39.6875 198.75 C-40.75226563 199.46671875 -41.81703125 200.1834375 -42.9140625 200.921875 C-44.7221365 202.13946407 -46.52967945 203.35784364 -48.3359375 204.578125 C-68.25967168 217.30135174 -93.36815631 223.82796555 -115.92895508 230.12109375 C-120.00092736 231.28645667 -123.99641792 232.61945446 -128 234 C-128 234.33 -128 234.66 -128 235 C-73.37426829 237.67669723 -73.37426829 237.67669723 -19 234 C-18.33210449 233.90348145 -17.66420898 233.80696289 -16.97607422 233.70751953 C-8.64868019 232.4763025 -0.58054267 230.45706838 7.5 228.125 C8.7375 227.77646973 8.7375 227.77646973 10 227.42089844 C32.04890177 220.77222392 47.43469658 201.37252082 57.984375 181.97265625 C63.85625343 170.74874917 66.10093914 158.50365665 67.125 146 C67.2502002 144.47681152 67.2502002 144.47681152 67.37792969 142.92285156 C69.26655718 118.49403307 67.66219191 93.85164479 62 70 C61.72542969 68.78054687 61.45085937 67.56109375 61.16796875 66.3046875 C57.25417311 49.75594428 52.46387887 33.10454627 47 17 C46.67 17 46.34 17 46 17 Z M-178 228 C-178 228.66 -178 229.32 -178 230 C-178.66 230 -179.32 230 -180 230 C-181.80306232 233.83150744 -182.35989587 236.77122353 -182 241 C-181.10168984 243.30230766 -181.10168984 243.30230766 -180 245 C-179.34 245 -178.68 245 -178 245 C-178 245.66 -178 246.32 -178 247 C-173.73307432 249.66682855 -170.76603769 250.48226026 -165.8984375 249.65234375 C-162.11091066 248.35086848 -159.74884461 245.49768921 -158 242 C-157.65282008 236.70550628 -157.47578282 233.25336556 -161 229 C-165.89228 224.94639657 -172.56960827 224.37973885 -178 228 Z " fill="#6DB340" transform="translate(343,94)"/>
<path d="M0 0 C0.99 0.33 1.98 0.66 3 1 C3.921875 3.38671875 3.921875 3.38671875 4.75 6.6875 C5.08878707 7.97752947 5.4315036 9.26653095 5.77734375 10.5546875 C5.96796387 11.26592773 6.15858398 11.97716797 6.35498047 12.70996094 C7.54921272 16.94989226 8.94900904 21.1246349 10.3125 25.3125 C24.40504412 69.13389262 24.40504412 69.13389262 24 82 C23.67 80.68 23.34 79.36 23 78 C22.34 78 21.68 78 21 78 C19.33318124 71.99945246 18.48320848 66.2054142 18 60 C17.01 60 16.02 60 15 60 C15.23396484 60.85464844 15.23396484 60.85464844 15.47265625 61.7265625 C15.99143138 63.96305972 16.24105469 66.08981987 16.4375 68.375 C16.7182652 71.16453808 17.08133259 73.22007642 18.0625 75.875 C19.46486111 80.54953703 19.15518677 85.15472414 19 90 C19.66 90 20.32 90 21 90 C20.67 95.61 20.34 101.22 20 107 C19.67 107 19.34 107 19 107 C18.97421875 106.22140625 18.9484375 105.4428125 18.921875 104.640625 C17.81638565 82.83233513 11.38582663 61.62282286 5.375 40.75 C5.17500397 40.052164 4.97500793 39.354328 4.76895142 38.63534546 C4.19151217 36.6253837 3.60841193 34.61715505 3.0234375 32.609375 C2.68231934 31.43342773 2.34120117 30.25748047 1.98974609 29.04589844 C1.17032473 26.52416657 0.27440973 24.3151658 -1 22 C-1.5775 22.86625 -2.155 23.7325 -2.75 24.625 C-3.1109375 25.16640625 -3.471875 25.7078125 -3.84375 26.265625 C-4.2253125 26.83796875 -4.606875 27.4103125 -5 28 C-6.33333333 30 -7.66666667 32 -9 34 C-9.66 32.68 -10.32 31.36 -11 30 C-9.625 28.5 -9.625 28.5 -8 27 C-7.34 27 -6.68 27 -6 27 C-5.34 24.36 -4.68 21.72 -4 19 C-4.99 19 -5.98 19 -7 19 C-7.103125 19.763125 -7.20625 20.52625 -7.3125 21.3125 C-8.06368323 24.24894352 -8.78309658 25.04912499 -11 27 C-11.66 27.99 -12.32 28.98 -13 30 C-14.32 29.67 -15.64 29.34 -17 29 C-17 28.34 -17 27.68 -17 27 C-16.01 26.67 -15.02 26.34 -14 26 C-12.61785911 24.22092603 -12.61785911 24.22092603 -11.40625 21.9921875 C-10.93316406 21.16976562 -10.46007812 20.34734375 -9.97265625 19.5 C-9.24369141 18.200625 -9.24369141 18.200625 -8.5 16.875 C-7.77103516 15.61042969 -7.77103516 15.61042969 -7.02734375 14.3203125 C-4.36340476 9.64571656 -2.00293448 4.99380286 0 0 Z " fill="#79B551" transform="translate(390,91)"/>
<path d="M0 0 C0.66 0 1.32 0 2 0 C-0.02149002 14.51248803 -5.1297817 27.18469212 -12 40 C-12.55300781 41.03769531 -13.10601562 42.07539063 -13.67578125 43.14453125 C-15.09561961 45.77634081 -16.52732183 48.3974222 -18 51 C-18.51046875 51.92683594 -19.0209375 52.85367188 -19.546875 53.80859375 C-20.02640625 54.53175781 -20.5059375 55.25492188 -21 56 C-21.66 56 -22.32 56 -23 56 C-23.226875 56.680625 -23.45375 57.36125 -23.6875 58.0625 C-25.32410945 61.72538782 -27.44289112 64.9083039 -30 68 C-30.33 68 -30.66 68 -31 68 C-31 66.35 -31 64.7 -31 63 C-30.34 63 -29.68 63 -29 63 C-29 62.34 -29 61.68 -29 61 C-29.66 60.67 -30.32 60.34 -31 60 C-30.34 59.01 -29.68 58.02 -29 57 C-29.66 57 -30.32 57 -31 57 C-31.33 57.66 -31.66 58.32 -32 59 C-32.99 59.495 -32.99 59.495 -34 60 C-34.78515625 57.37109375 -34.78515625 57.37109375 -35 54 C-33.54515675 51.7043118 -32.25902429 50.01488183 -30.4375 48.0625 C-29.73959351 47.26839722 -29.73959351 47.26839722 -29.02758789 46.45825195 C-27.1580331 44.33747065 -25.2433714 42.2602722 -23.3125 40.1953125 C-13.93609003 29.91322657 -8.01132376 16.41186991 -2 4 C-1.33588069 2.66539603 -0.67070807 1.33130496 0 0 Z " fill="#6DB141" transform="translate(376,187)"/>
<path d="M0 0 C0.66 0 1.32 0 2 0 C0.09976506 13.64198515 -4.46542688 25.94135476 -11 38 C-11.84062397 34.90226756 -12.08935201 32.21667249 -12 29 C-12.66 29 -13.32 29 -14 29 C-13.67 30.98 -13.34 32.96 -13 35 C-14.32 34.67 -15.64 34.34 -17 34 C-17 34.66 -17 35.32 -17 36 C-17.66 35.67 -18.32 35.34 -19 35 C-18.443125 34.1028125 -17.88625 33.205625 -17.3125 32.28125 C-11.6698275 23.08997729 -6.69945029 13.70318154 -2 4 C-1.33588069 2.66539603 -0.67070807 1.33130496 0 0 Z " fill="#88BB62" transform="translate(376,187)"/>
<path d="M0 0 C30.68230108 -0.1096045 61.33586357 -0.16508845 92 1 C92 1.33 92 1.66 92 2 C48.935 2.495 48.935 2.495 5 3 C4.67 3.66 4.34 4.32 4 5 C3.01 5 2.02 5 1 5 C2 3 2 3 3 2 C2.01 2 1.02 2 0 2 C0 1.34 0 0.68 0 0 Z " fill="#93C275" transform="translate(209,329)"/>
<path d="M0 0 C0.33 0.66 0.66 1.32 1 2 C0.34 2 -0.32 2 -1 2 C-1.144375 3.11375 -1.28875 4.2275 -1.4375 5.375 C-2 9 -2 9 -3 11 C-3.99 11.66 -4.98 12.32 -6 13 C-5.67 14.32 -5.34 15.64 -5 17 C-4.34 17 -3.68 17 -3 17 C-2.67 15.68 -2.34 14.36 -2 13 C-1.34 13 -0.68 13 0 13 C0.33 12.34 0.66 11.68 1 11 C1.66 11 2.32 11 3 11 C2.49396008 13.16874252 2.00016187 14.99967627 1 17 C0.34 17 -0.32 17 -1 17 C-1.226875 17.680625 -1.45375 18.36125 -1.6875 19.0625 C-3.32410945 22.72538782 -5.44289112 25.9083039 -8 29 C-8.33 29 -8.66 29 -9 29 C-9 27.35 -9 25.7 -9 24 C-8.34 24 -7.68 24 -7 24 C-7 23.34 -7 22.68 -7 22 C-7.66 21.67 -8.32 21.34 -9 21 C-8.34 20.01 -7.68 19.02 -7 18 C-7.66 18 -8.32 18 -9 18 C-9.33 18.66 -9.66 19.32 -10 20 C-10.66 20.33 -11.32 20.66 -12 21 C-12.796875 18.38671875 -12.796875 18.38671875 -13 15 C-11.48357678 12.62685736 -10.13286374 10.84198018 -8.25 8.8125 C-7.79367187 8.29236328 -7.33734375 7.77222656 -6.8671875 7.23632812 C-4.66167827 4.74078806 -2.39059796 2.31888002 0 0 Z " fill="#76B54F" transform="translate(354,226)"/>
<path d="M0 0 C1.74023438 0.14501953 1.74023438 0.14501953 3.515625 0.29296875 C4.7221875 0.40511719 5.92875 0.51726562 7.171875 0.6328125 C8.39390625 0.73722656 9.6159375 0.84164062 10.875 0.94921875 C13.89167734 1.20846446 16.90701189 1.47837689 19.921875 1.7578125 C19.921875 2.0878125 19.921875 2.4178125 19.921875 2.7578125 C19.34969238 2.7671582 18.77750977 2.77650391 18.18798828 2.78613281 C0.4891468 3.14654045 -15.32104939 5.04269844 -31.453125 12.5859375 C-34.078125 13.7578125 -34.078125 13.7578125 -36.078125 13.7578125 C-35.748125 12.4378125 -35.418125 11.1178125 -35.078125 9.7578125 C-32.1484375 9.07421875 -32.1484375 9.07421875 -29.21875 8.390625 C-27.07637575 7.82786162 -27.07637575 7.82786162 -25.21875 6.8125 C-21.39854377 4.9302816 -17.24806034 3.95449077 -13.171875 2.7578125 C-10.20943213 1.92650282 -10.20943213 1.92650282 -8.26464844 0.68017578 C-5.32629224 -0.55934071 -3.16667116 -0.27941216 0 0 Z " fill="#96C07A" transform="translate(239.078125,178.2421875)"/>
<path d="M0 0 C0.33 0.66 0.66 1.32 1 2 C3.01669827 3.13350534 3.01669827 3.13350534 5 4 C4.938125 5.134375 4.87625 6.26875 4.8125 7.4375 C4.79505796 10.75148745 5.31341584 13.22626703 6.5 16.3125 C8.44317845 21.53080081 8.27764376 26.49854032 8 32 C8.66 32 9.32 32 10 32 C9.67 37.61 9.34 43.22 9 49 C8.67 49 8.34 49 8 49 C7.97421875 48.22140625 7.9484375 47.4428125 7.921875 46.640625 C7.20791563 32.55615371 4.18219523 18.80845785 0.515625 5.21484375 C0 3 0 3 0 0 Z " fill="#8BBB68" transform="translate(401,149)"/>
<path d="M0 0 C2.0343459 1.41519715 2.90410393 2.54982123 3.421875 4.98046875 C3.66273952 6.98176954 3.83532741 8.9909944 4 11 C4.66 11 5.32 11 6 11 C6 12.65 6 14.3 6 16 C6.66 16.33 7.32 16.66 8 17 C7.67 17.99 7.34 18.98 7 20 C5.35 19.67 3.7 19.34 2 19 C-0.12764994 12.8196835 -1.47675477 7.55537815 -1 1 C-0.67 0.67 -0.34 0.34 0 0 Z " fill="#6CB13E" transform="translate(394,108)"/>
<path d="M0 0 C0 0.33 0 0.66 0 1 C-0.72477539 1.0501123 -1.44955078 1.10022461 -2.19628906 1.15185547 C-5.54796992 1.38699566 -8.8989561 1.63095659 -12.25 1.875 C-13.38953125 1.95363281 -14.5290625 2.03226562 -15.703125 2.11328125 C-22.39204401 2.60734913 -28.8862044 3.39441123 -35.46777344 4.69970703 C-37.99053274 4.99887729 -39.61058246 4.79623867 -42 4 C-31.177399 -3.21506733 -12.41628985 -0.19011987 0 0 Z " fill="#B0D59A" transform="translate(278,73)"/>
<path d="M0 0 C0.99 0.33 1.98 0.66 3 1 C3.87890625 3.6875 3.87890625 3.6875 4.5625 7 C4.98271059 9.0132123 5.44986093 11.01834723 6 13 C6.66 13.33 7.32 13.66 8 14 C8 14.66 8 15.32 8 16 C8.66 16 9.32 16 10 16 C9.67 18.97 9.34 21.94 9 25 C8.34 25 7.68 25 7 25 C5.82882795 21.20970992 4.66382785 17.41755098 3.5 13.625 C3.16613281 12.54476562 2.83226562 11.46453125 2.48828125 10.3515625 C2.17246094 9.3203125 1.85664063 8.2890625 1.53125 7.2265625 C1.23798828 6.27346191 0.94472656 5.32036133 0.64257812 4.33837891 C0 2 0 2 0 0 Z " fill="#82B65D" transform="translate(390,112)"/>
<path d="M0 0 C-0.33 1.32 -0.66 2.64 -1 4 C-1.78375 4.12375 -2.5675 4.2475 -3.375 4.375 C-7.93553074 5.1612984 -12.46489803 6.08004271 -17 7 C-18.66657746 7.33377907 -20.33321916 7.66723805 -22 8 C-20.10150782 4.20301564 -14.81958132 3.4163797 -11 2 C-9.906875 1.5875 -8.81375 1.175 -7.6875 0.75 C-4.98949675 -0.00293114 -2.78554368 -0.16385551 0 0 Z " fill="#87B964" transform="translate(110,161)"/>
<path d="M0 0 C2.573533 4.71859941 3.46240534 9.72948146 4.625 14.9375 C4.85445313 15.92685547 5.08390625 16.91621094 5.3203125 17.93554688 C5.536875 18.89396484 5.7534375 19.85238281 5.9765625 20.83984375 C6.17330566 21.70988037 6.37004883 22.57991699 6.57275391 23.47631836 C7.00577237 26.03409655 7.07604933 28.41113001 7 31 C6.67 29.68 6.34 28.36 6 27 C5.34 27 4.68 27 4 27 C2.50613544 21.62208759 1.68414178 16.57782168 1.34375 11.00390625 C1.2303125 10.34261719 1.116875 9.68132812 1 9 C0.34 8.67 -0.32 8.34 -1 8 C-0.67 5.36 -0.34 2.72 0 0 Z " fill="#91BC70" transform="translate(407,142)"/>
<path d="M0 0 C0.33 0 0.66 0 1 0 C1.14285714 7.42857143 1.14285714 7.42857143 0 11 C-0.99 11 -1.98 11 -3 11 C-3.33 12.98 -3.66 14.96 -4 17 C-4.99 16.67 -5.98 16.34 -7 16 C-6.7215625 15.1028125 -6.7215625 15.1028125 -6.4375 14.1875 C-5.77906313 11.83591238 -5.77906313 11.83591238 -7 9 C-6.34 9 -5.68 9 -5 9 C-5 8.34 -5 7.68 -5 7 C-4.01 6.67 -3.02 6.34 -2 6 C-2.33 5.34 -2.66 4.68 -3 4 C-2.67 3.34 -2.34 2.68 -2 2 C-1.34 2 -0.68 2 0 2 C0 1.34 0 0.68 0 0 Z " fill="#6BB03E" transform="translate(364,214)"/>
<path d="M0 0 C1.05543251 3.18769143 0.97424908 4.94786631 -0.25 8.0625 C-0.50265625 8.73410156 -0.7553125 9.40570313 -1.015625 10.09765625 C-2.08828315 12.1706107 -3.31748211 13.39987345 -5 15 C-5.99 16.485 -5.99 16.485 -7 18 C-8.32 17.67 -9.64 17.34 -11 17 C-11 16.34 -11 15.68 -11 15 C-10.01 14.67 -9.02 14.34 -8 14 C-6.49005982 11.66435639 -5.13084855 9.37632563 -3.8125 6.9375 C-3.44447266 6.27427734 -3.07644531 5.61105469 -2.69726562 4.92773438 C-1.78987938 3.28972543 -0.89384427 1.64543779 0 0 Z " fill="#92BD72" transform="translate(384,103)"/>
<path d="M0 0 C3.78611227 0.54087318 5.55400767 2.11722332 8 5 C8 5.66 8 6.32 8 7 C8.99 7.33 9.98 7.66 11 8 C11.6875 10.0625 11.6875 10.0625 12 12 C12.61875 12.061875 13.2375 12.12375 13.875 12.1875 C16 13 16 13 17.25 15.5625 C17.4975 16.366875 17.745 17.17125 18 18 C10.58567119 13.62744711 4.19089115 7.54360407 0 0 Z " fill="#8DB96D" transform="translate(52,332)"/>
<path d="M0 0 C0.66 0 1.32 0 2 0 C2.867242 2.41267325 3.71896936 4.82904469 4.5625 7.25 C4.80935547 7.93191406 5.05621094 8.61382812 5.31054688 9.31640625 C7.47053761 15.58342161 7.47053761 15.58342161 6 19 C5.34 18.67 4.68 18.34 4 18 C4.33 16.68 4.66 15.36 5 14 C3.68 13.67 2.36 13.34 1 13 C0.67 8.71 0.34 4.42 0 0 Z " fill="#82B65B" transform="translate(473,237)"/>
<path d="M0 0 C0.99 0 1.98 0 3 0 C4.36952673 2.73905345 4.12621361 4.97087332 4 8 C3.67 8.66 3.34 9.32 3 10 C3.66 10.33 4.32 10.66 5 11 C4.34 11 3.68 11 3 11 C3 11.66 3 12.32 3 13 C2.34 13 1.68 13 1 13 C0.44213732 11.40139351 -0.09579568 9.79582095 -0.625 8.1875 C-0.92664063 7.29417969 -1.22828125 6.40085938 -1.5390625 5.48046875 C-2 3 -2 3 0 0 Z " fill="#6CB141" transform="translate(401,135)"/>
<path d="M0 0 C0.68707555 2.49064888 1 4.37886292 1 7 C0.01 7.33 -0.98 7.66 -2 8 C-3.22969878 11.51190809 -3.22969878 11.51190809 -4 15 C-5.32 15 -6.64 15 -8 15 C-7.34413394 11.77225466 -6.17647493 9.23896739 -4.5625 6.375 C-4.13066406 5.59898437 -3.69882813 4.82296875 -3.25390625 4.0234375 C-2 2 -2 2 0 0 Z " fill="#92C176" transform="translate(142,135)"/>
<path d="M0 0 C1.5625 1.8125 1.5625 1.8125 3 4 C2.67 4.99 2.34 5.98 2 7 C2.66 7.33 3.32 7.66 4 8 C4.33 6.02 4.66 4.04 5 2 C5.99 2 6.98 2 8 2 C6.68938409 6.23429756 5.05643741 10.07407404 3 14 C2.67 14 2.34 14 2 14 C2 12.35 2 10.7 2 9 C1.01 8.67 0.02 8.34 -1 8 C-1.125 2.25 -1.125 2.25 0 0 Z " fill="#89BB68" transform="translate(356,223)"/>
<path d="M0 0 C0 0.33 0 0.66 0 1 C-0.61746094 1.17015625 -1.23492187 1.3403125 -1.87109375 1.515625 C-7.20237137 3.04116563 -12.1807507 4.84332221 -17.1875 7.23046875 C-19 8 -19 8 -21 8 C-20.67 6.68 -20.34 5.36 -20 4 C-18.7625 3.71125 -17.525 3.4225 -16.25 3.125 C-13.91525012 2.55355772 -12.10103041 2.05682961 -10 0.875 C-6.73385373 -0.55393899 -3.53391515 -0.11779717 0 0 Z " fill="#97BF78" transform="translate(224,184)"/>
<path d="M0 0 C2.97 0 5.94 0 9 0 C5.67091833 2.21938778 2.31854136 3.42348225 -1.4375 4.6875 C-2.10587891 4.92533203 -2.77425781 5.16316406 -3.46289062 5.40820312 C-9.5374856 7.46116337 -9.5374856 7.46116337 -13 6 C-10.53698577 3.53698577 -8.72639964 3.23233479 -5.375 2.375 C-4.37210938 2.11460937 -3.36921875 1.85421875 -2.3359375 1.5859375 C-1.56507813 1.39257812 -0.79421875 1.19921875 0 1 C0 0.67 0 0.34 0 0 Z " fill="#97C076" transform="translate(254,313)"/>
<path d="M0 0 C0.99 0.495 0.99 0.495 2 1 C2.40729228 3.32156597 2.74438677 5.6568787 3 8 C3.66 8 4.32 8 5 8 C5 7.34 5 6.68 5 6 C5.66 6 6.32 6 7 6 C7.33 7.65 7.66 9.3 8 11 C7.01 11.33 6.02 11.66 5 12 C2.69857565 10.21825212 1.19965609 8.83695835 0.51171875 5.953125 C0.27676898 3.9753389 0.13248542 1.98728128 0 0 Z M6 2 C6.66 2 7.32 2 8 2 C7.67 3.32 7.34 4.64 7 6 C6.34 5.67 5.68 5.34 5 5 C5.33 4.01 5.66 3.02 6 2 Z " fill="#7AB455" transform="translate(399,140)"/>
<path d="M0 0 C0.66 0.33 1.32 0.66 2 1 C1.67 1.66 1.34 2.32 1 3 C0.34 3 -0.32 3 -1 3 C-1.061875 3.556875 -1.12375 4.11375 -1.1875 4.6875 C-2.37608305 8.07039021 -4.28028994 9.70335595 -7 12 C-10.3125 13.3125 -10.3125 13.3125 -13 14 C-12.06409496 12.8944811 -11.12620142 11.79064547 -10.1875 10.6875 C-9.66542969 10.07261719 -9.14335938 9.45773438 -8.60546875 8.82421875 C-5.6626898 5.48047722 -5.6626898 5.48047722 -4 4 C-3.34 4 -2.68 4 -2 4 C-2 3.34 -2 2.68 -2 2 C-1.34 2 -0.68 2 0 2 C0 1.34 0 0.68 0 0 Z " fill="#8DBA71" transform="translate(69,180)"/>
<path d="M0 0 C0.93045933 2.55144824 1.08564091 3.74006478 0.22265625 6.359375 C-0.16019531 7.14828125 -0.54304688 7.9371875 -0.9375 8.75 C-1.31777344 9.54921875 -1.69804687 10.3484375 -2.08984375 11.171875 C-2.39019531 11.77515625 -2.69054687 12.3784375 -3 13 C-3.66 13 -4.32 13 -5 13 C-5 13.66 -5 14.32 -5 15 C-5.66 15 -6.32 15 -7 15 C-7 15.99 -7 16.98 -7 18 C-7.66 18 -8.32 18 -9 18 C-7.65072455 13.46152802 -5.80840652 9.68067754 -3.375 5.625 C-2.74335938 4.56539063 -2.11171875 3.50578125 -1.4609375 2.4140625 C-0.73777344 1.21910156 -0.73777344 1.21910156 0 0 Z " fill="#93BD77" transform="translate(402,272)"/>
<path d="M0 0 C0.99 0.33 1.98 0.66 3 1 C3.08119503 3.24940295 3.13927819 5.49964871 3.1875 7.75 C3.22230469 9.00296875 3.25710937 10.2559375 3.29296875 11.546875 C2.98802939 15.14109357 2.45605371 16.44725126 0 19 C-1.32 18.67 -2.64 18.34 -4 18 C-3.360625 17.38125 -2.72125 16.7625 -2.0625 16.125 C1.19453237 12.76926968 1.15213638 10.6125013 1.1015625 5.9765625 C0.99373528 3.87807887 0.66510129 1.99530388 0 0 Z " fill="#86B467" transform="translate(183,324)"/>
<path d="M0 0 C3.85645121 -0.22036864 6.49223216 0.39644899 10 2 C10 2.33 10 2.66 10 3 C11.65 3.33 13.3 3.66 15 4 C15 4.99 15 5.98 15 7 C9.14727744 6.54979057 4.91779881 3.96160773 0 1 C0 0.67 0 0.34 0 0 Z " fill="#96C077" transform="translate(87,361)"/>
<path d="M0 0 C2.125 0.9375 2.125 0.9375 4 2 C-4.261959 8.51936219 -4.261959 8.51936219 -9 10 C-9 9.34 -9 8.68 -9 8 C-8.34 8 -7.68 8 -7 8 C-7 7.34 -7 6.68 -7 6 C-5.68 6 -4.36 6 -3 6 C-2.814375 4.7934375 -2.814375 4.7934375 -2.625 3.5625 C-2.41875 2.716875 -2.2125 1.87125 -2 1 C-1.34 0.67 -0.68 0.34 0 0 Z " fill="#91BD72" transform="translate(444,351)"/>
<path d="M0 0 C0.99 0.66 1.98 1.32 3 2 C1.41925436 2.81752303 -0.16471223 3.62881997 -1.75 4.4375 C-2.63171875 4.88996094 -3.5134375 5.34242188 -4.421875 5.80859375 C-6.64198566 6.83455398 -8.61444619 7.51508603 -11 8 C-10.67 7.01 -10.34 6.02 -10 5 C-9.01 4.67 -8.02 4.34 -7 4 C-5.33289654 2.50014391 -5.33289654 2.50014391 -4 1 C-3.67 1.33 -3.34 1.66 -3 2 C-2.01 1.34 -1.02 0.68 0 0 Z " fill="#87B863" transform="translate(287,300)"/>
<path d="M0 0 C0.66 0.33 1.32 0.66 2 1 C-2.24242424 7.81818182 -2.24242424 7.81818182 -6 10 C-6.99 10 -7.98 10 -9 10 C-9.33 10.99 -9.66 11.98 -10 13 C-10.66 12.67 -11.32 12.34 -12 12 C-8 8 -4 4 0 0 Z " fill="#95BD76" transform="translate(339,242)"/>
<path d="M0 0 C0.66 0 1.32 0 2 0 C1.49396008 2.16874252 1.00016187 3.99967627 0 6 C-0.66 6 -1.32 6 -2 6 C-2.28875 6.804375 -2.5775 7.60875 -2.875 8.4375 C-4 11 -4 11 -6 12 C-6 10.02 -6 8.04 -6 6 C-5.34 6 -4.68 6 -4 6 C-3.67 4.68 -3.34 3.36 -3 2 C-2.34 2 -1.68 2 -1 2 C-0.67 1.34 -0.34 0.68 0 0 Z " fill="#8EBB6C" transform="translate(355,237)"/>
<path d="M0 0 C0.66 0 1.32 0 2 0 C1.71617054 1.75128818 1.42260471 3.50100003 1.125 5.25 C0.96257812 6.22453125 0.80015625 7.1990625 0.6328125 8.203125 C0.05144152 10.77264117 -0.70840265 12.72071056 -2 15 C-2 13.02 -2 11.04 -2 9 C-2.66 8.67 -3.32 8.34 -4 8 C-2.68 5.36 -1.36 2.72 0 0 Z " fill="#A6C58F" transform="translate(376,187)"/>
<path d="M0 0 C0.99 0.33 1.98 0.66 3 1 C4.01953125 3.6171875 4.01953125 3.6171875 4.8125 6.875 C5.08707031 7.94492188 5.36164063 9.01484375 5.64453125 10.1171875 C6 13 6 13 4 16 C2.68 10.72 1.36 5.44 0 0 Z " fill="#9CC37B" transform="translate(390,112)"/>
<path d="M0 0 C2.12600304 3.18900456 3.02136239 5.90414569 4.125 9.5625 C4.47820312 10.71878906 4.83140625 11.87507813 5.1953125 13.06640625 C6 16 6 16 6 18 C5.34 18 4.68 18 4 18 C4 16.35 4 14.7 4 13 C3.34 13 2.68 13 2 13 C-0.28571429 4.57142857 -0.28571429 4.57142857 0 0 Z " fill="#92BE75" transform="translate(396,106)"/>
<path d="M0 0 C-5.76240474 3.84160316 -11.29157865 4.23538321 -18 4 C-18 3.67 -18 3.34 -18 3 C-11.79485526 0.86380263 -6.57315478 -0.36517527 0 0 Z " fill="#8EBF73" transform="translate(416,369)"/>
<path d="M0 0 C1.3609623 2.7219246 0.70366248 4.1831957 0.0625 7.125 C-0.13214844 8.03507813 -0.32679688 8.94515625 -0.52734375 9.8828125 C-0.68332031 10.58148438 -0.83929688 11.28015625 -1 12 C-1.66 12 -2.32 12 -3 12 C-2.979375 11.21625 -2.95875 10.4325 -2.9375 9.625 C-2.81315937 7.01885039 -2.81315937 7.01885039 -4 5 C-2.52830189 1.26415094 -2.52830189 1.26415094 0 0 Z " fill="#7EB45D" transform="translate(374,195)"/>
<path d="M0 0 C-0.66 0 -1.32 0 -2 0 C-2 0.66 -2 1.32 -2 2 C-4.64458379 3.32229189 -6.67761301 3.09677194 -9.625 3.0625 C-10.62789063 3.05347656 -11.63078125 3.04445313 -12.6640625 3.03515625 C-13.43492187 3.02355469 -14.20578125 3.01195312 -15 3 C-5.21459227 -2.08583691 -5.21459227 -2.08583691 0 0 Z " fill="#98C178" transform="translate(347,324)"/>
<path d="M0 0 C5.60461531 0.42089996 10.72086547 0.91613111 16 3 C16 3.33 16 3.66 16 4 C9.07 3.505 9.07 3.505 2 3 C2 2.34 2 1.68 2 1 C1.34 0.67 0.68 0.34 0 0 Z " fill="#94C079" transform="translate(154,158)"/>
<path d="M0 0 C-1.45449401 1.0055761 -2.91372443 2.00430435 -4.375 3 C-5.59316406 3.8353125 -5.59316406 3.8353125 -6.8359375 4.6875 C-9 6 -9 6 -11 6 C-11 5.01 -11 4.02 -11 3 C-11.66 2.67 -12.32 2.34 -13 2 C-10.03 2.495 -10.03 2.495 -7 3 C-7 2.01 -7 1.02 -7 0 C-3.86650268 -1.04449911 -3.01031744 -0.93423645 0 0 Z " fill="#97C17D" transform="translate(311,289)"/>
<path d="M0 0 C0.33 0.99 0.66 1.98 1 3 C0.01 3.33 -0.98 3.66 -2 4 C-2.73323796 6.01508358 -2.73323796 6.01508358 -3 8 C-5.31 8.33 -7.62 8.66 -10 9 C-6.85281112 5.7317654 -3.50647501 2.8689341 0 0 Z " fill="#8FB76F" transform="translate(378,305)"/>
<path d="M0 0 C1.5121867 3.02437339 1.17263369 5.66241534 1 9 C0 11.4375 0 11.4375 -1 13 C-2.231394 10.53721199 -2.07159196 8.7204945 -2 6 C-2.66 5.67 -3.32 5.34 -4 5 C-2.25 1.125 -2.25 1.125 0 0 Z " fill="#96C379" transform="translate(371,201)"/>
<path d="M0 0 C2.5 1.375 2.5 1.375 5 3 C5 3.66 5 4.32 5 5 C4.34 5 3.68 5 3 5 C3 5.66 3 6.32 3 7 C2.34 7 1.68 7 1 7 C0.67 7.99 0.34 8.98 0 10 C-1.07318928 6.78043217 -0.870689 6.09578311 0 3 C0 2.01 0 1.02 0 0 Z " fill="#81B762" transform="translate(179,202)"/>
<path d="M0 0 C0.66 0 1.32 0 2 0 C1.01 4.95 0.02 9.9 -1 15 C-1.33 15 -1.66 15 -2 15 C-2.3690205 4.44191344 -2.3690205 4.44191344 0 0 Z " fill="#93BB65" transform="translate(161,239)"/>
<path d="M0 0 C2.25 -0.25 2.25 -0.25 5 0 C7.3125 1.875 7.3125 1.875 9 4 C9 4.66 9 5.32 9 6 C5.9168649 4.80100302 2.93720508 3.52299523 0 2 C0 1.34 0 0.68 0 0 Z " fill="#89C268" transform="translate(181,164)"/>
<path d="M0 0 C0.99 0.33 1.98 0.66 3 1 C2.67 6.61 2.34 12.22 2 18 C1.67 18 1.34 18 1 18 C0.67 12.06 0.34 6.12 0 0 Z " fill="#A6CB8E" transform="translate(408,180)"/>
<path d="M0 0 C0.66 0.33 1.32 0.66 2 1 C1.67 1.66 1.34 2.32 1 3 C0.01 3.33 -0.98 3.66 -2 4 C-2 4.99 -2 5.98 -2 7 C-3.98 6.34 -5.96 5.68 -8 5 C-5.45378681 2.99940392 -3.01962385 1.20784954 0 0 Z " fill="#89BD6C" transform="translate(291,278)"/>
<path d="M0 0 C0.99 0.66 1.98 1.32 3 2 C1.3767313 2.6708712 -0.24867578 3.33657029 -1.875 4 C-3.23238281 4.556875 -3.23238281 4.556875 -4.6171875 5.125 C-7 6 -7 6 -9 6 C-8.67 5.01 -8.34 4.02 -8 3 C-5.36 2.67 -2.72 2.34 0 2 C0 1.34 0 0.68 0 0 Z " fill="#8EB86D" transform="translate(323,165)"/>
<path d="M0 0 C0 3.39593478 -0.52165948 4.06619881 -2.5 6.6875 C-2.9640625 7.31011719 -3.428125 7.93273437 -3.90625 8.57421875 C-4.2671875 9.04472656 -4.628125 9.51523438 -5 10 C-5.66 8.68 -6.32 7.36 -7 6 C-5.625 4.5 -5.625 4.5 -4 3 C-3.34 3 -2.68 3 -2 3 C-2 2.34 -2 1.68 -2 1 C-1.34 0.67 -0.68 0.34 0 0 Z " fill="#8ABE6B" transform="translate(386,115)"/>
<path d="M0 0 C1 3 1 3 -0.4375 6.1875 C-1.2109375 7.5796875 -1.2109375 7.5796875 -2 9 C-3.36741555 6.74778616 -4.04066478 5.47442242 -3.8125 2.8125 C-3.544375 2.214375 -3.27625 1.61625 -3 1 C-2.01 0.67 -1.02 0.34 0 0 Z " fill="#82B65D" transform="translate(471,321)"/>
<path d="M0 0 C0.33 0 0.66 0 1 0 C1 2.97 1 5.94 1 9 C0.34 9 -0.32 9 -1 9 C-1.33 10.65 -1.66 12.3 -2 14 C-3.21065165 10.36804504 -2.62784815 8.93468371 -1.5625 5.3125 C-1.27503906 4.31863281 -0.98757812 3.32476562 -0.69140625 2.30078125 C-0.46324219 1.54152344 -0.23507813 0.78226563 0 0 Z " fill="#95C178" transform="translate(34,231)"/>
<path d="M0 0 C0.33 0.66 0.66 1.32 1 2 C0.34 2 -0.32 2 -1 2 C-1.33 4.31 -1.66 6.62 -2 9 C-2.66 9 -3.32 9 -4 9 C-4 8.34 -4 7.68 -4 7 C-4.66 6.67 -5.32 6.34 -6 6 C-2.25 1.125 -2.25 1.125 0 0 Z " fill="#8EBE71" transform="translate(354,226)"/>
<path d="M0 0 C2.97 0.33 5.94 0.66 9 1 C9 1.33 9 1.66 9 2 C5.7 2.66 2.4 3.32 -1 4 C-0.67 2.68 -0.34 1.36 0 0 Z " fill="#8DBC67" transform="translate(300,172)"/>
<path d="M0 0 C0.66 0 1.32 0 2 0 C3.80230168 3.82989106 4.19622241 6.78121808 4 11 C1.73030256 8.73030256 1.00868171 7.02604513 0 4 C0 2.68 0 1.36 0 0 Z " fill="#86BA69" transform="translate(34,296)"/>
<path d="M0 0 C0.66 0 1.32 0 2 0 C0.68938409 4.23429756 -0.94356259 8.07407404 -3 12 C-3.66 10.68 -4.32 9.36 -5 8 C-4.34 7.01 -3.68 6.02 -3 5 C-2.34 5 -1.68 5 -1 5 C-0.67 3.35 -0.34 1.7 0 0 Z " fill="#94BB78" transform="translate(167,225)"/>
<path d="M0 0 C3.53600465 1.91135386 5.78972846 3.62642766 8 7 C7.01 7 6.02 7 5 7 C5 6.34 5 5.68 5 5 C3.68 5 2.36 5 1 5 C0.67 3.35 0.34 1.7 0 0 Z " fill="#92BD75" transform="translate(356,103)"/>
<path d="M0 0 C1.65 0 3.3 0 5 0 C4.67 0.99 4.34 1.98 4 3 C5.32 3.33 6.64 3.66 8 4 C6.3125 4.6875 6.3125 4.6875 4 5 C1.25 3.5625 1.25 3.5625 -1 2 C-0.67 1.34 -0.34 0.68 0 0 Z " fill="#88B867" transform="translate(81,356)"/>
<path d="M0 0 C0.66 0.99 1.32 1.98 2 3 C0.35 5.31 -1.3 7.62 -3 10 C-4 7 -4 7 -3.22265625 5.17578125 C-2.1484375 3.45052083 -1.07421875 1.72526042 0 0 Z " fill="#87B565" transform="translate(173,213)"/>
<path d="M0 0 C1.875 0.3125 1.875 0.3125 4 1 C4.66 1.99 5.32 2.98 6 4 C4.1875 4.6875 4.1875 4.6875 2 5 C0.25 3.5625 0.25 3.5625 -1 2 C-0.67 1.34 -0.34 0.68 0 0 Z " fill="#78B252" transform="translate(55,194)"/>
<path d="M0 0 C1.32 0 2.64 0 4 0 C4 0.99 4 1.98 4 3 C5.98 3 7.96 3 10 3 C9.34 3.66 8.68 4.32 8 5 C4.55834679 4.64700993 2.93127462 3.95418308 0 2 C0 1.34 0 0.68 0 0 Z " fill="#7EB75A" transform="translate(304,168)"/>
<path d="M0 0 C3.3 1.65 6.6 3.3 10 5 C9.01 5.66 8.02 6.32 7 7 C1.125 3.375 1.125 3.375 0 0 Z " fill="#89B76A" transform="translate(346,97)"/>
<path d="M0 0 C2.875 0.6875 2.875 0.6875 6 2 C7.375 4.625 7.375 4.625 8 7 C2.25 3.375 2.25 3.375 0 0 Z " fill="#94BF73" transform="translate(62,343)"/>
<path d="M0 0 C0.99 0.33 1.98 0.66 3 1 C3 3.64 3 6.28 3 9 C2.01 8.67 1.02 8.34 0 8 C0 5.36 0 2.72 0 0 Z " fill="#7FB35D" transform="translate(159,328)"/>
<path d="M0 0 C0.33 1.32 0.66 2.64 1 4 C0.360625 4.28875 -0.27875 4.5775 -0.9375 4.875 C-3.15206079 5.82823451 -3.15206079 5.82823451 -4 8 C-4.33 7.01 -4.66 6.02 -5 5 C-3.35 3.35 -1.7 1.7 0 0 Z " fill="#8FBE6E" transform="translate(385,299)"/>
<path d="M0 0 C0.66 0 1.32 0 2 0 C2.33 1.32 2.66 2.64 3 4 C0.69 4.66 -1.62 5.32 -4 6 C-1.125 1.125 -1.125 1.125 0 0 Z " fill="#7FB358" transform="translate(348,233)"/>
<path d="M0 0 C0.99 0.33 1.98 0.66 3 1 C1.29374499 3.78388975 0.52373261 4.85384206 -2.6875 5.75 C-3.8321875 5.87375 -3.8321875 5.87375 -5 6 C-3.35 4.02 -1.7 2.04 0 0 Z " fill="#84B966" transform="translate(61,188)"/>
<path d="M0 0 C-0.33 0.99 -0.66 1.98 -1 3 C-4.0625 4.1875 -4.0625 4.1875 -7 5 C-6.67 3.68 -6.34 2.36 -6 1 C-3.92446352 0.4465236 -2.15634036 0 0 0 Z " fill="#88B464" transform="translate(210,187)"/>
<path d="M0 0 C0.99 0.33 1.98 0.66 3 1 C2.67 2.32 2.34 3.64 2 5 C1.34 5 0.68 5 0 5 C-0.66 6.32 -1.32 7.64 -2 9 C-2.33 8.34 -2.66 7.68 -3 7 C-2.06421005 4.64018187 -1.06652192 2.30368736 0 0 Z " fill="#A5C48B" transform="translate(390,91)"/>
<path d="M0 0 C3.91211733 1.15585285 6.8745041 2.35534962 10 5 C8.35 5 6.7 5 5 5 C5 4.34 5 3.68 5 3 C3.35 3 1.7 3 0 3 C0 2.01 0 1.02 0 0 Z " fill="#91BB6E" transform="translate(326,86)"/>
<path d="M0 0 C-6.75 4 -6.75 4 -9 4 C-9 3.01 -9 2.02 -9 1 C-3.375 -1.125 -3.375 -1.125 0 0 Z " fill="#A3C68A" transform="translate(435,362)"/>
<path d="M0 0 C1.65 0 3.3 0 5 0 C5 0.99 5 1.98 5 3 C2.69 3.33 0.38 3.66 -2 4 C-1.34 2.68 -0.68 1.36 0 0 Z " fill="#71AD4B" transform="translate(210,305)"/>
<path d="M0 0 C0 0.33 0 0.66 0 1 C-4.0527516 1.98248524 -7.83861737 2.08159574 -12 2 C-7.47621396 -1.01585736 -5.21315314 -1.04263063 0 0 Z " fill="#87B769" transform="translate(297,176)"/>
<path d="M0 0 C0 0.66 0 1.32 0 2 C-3.67410785 3.17571451 -7.16929183 3.07366746 -11 3 C-6.98213116 0.99106558 -4.56087444 -0.12002301 0 0 Z " fill="#A3C783" transform="translate(110,161)"/>
<path d="M0 0 C2.64 0.33 5.28 0.66 8 1 C8 2.65 8 4.3 8 6 C4.90961152 4.45480576 2.43753339 2.43753339 0 0 Z " fill="#95C477" transform="translate(172,159)"/>
<path d="M0 0 C2.97 0.33 5.94 0.66 9 1 C9.33 1.99 9.66 2.98 10 4 C6.44219804 3.39009109 3.3171411 2.4216319 0 1 C0 0.67 0 0.34 0 0 Z " fill="#94BE78" transform="translate(161,154)"/>
<path d="M0 0 C0.33 1.32 0.66 2.64 1 4 C0.34 4 -0.32 4 -1 4 C-1.33 5.65 -1.66 7.3 -2 9 C-3.32 8.67 -4.64 8.34 -6 8 C-4.02 5.36 -2.04 2.72 0 0 Z " fill="#A5C98F" transform="translate(152,122)"/>
<path d="M0 0 C0.33 0.66 0.66 1.32 1 2 C1.66 2.33 2.32 2.66 3 3 C-1.455 4.485 -1.455 4.485 -6 6 C-4 4 -2 2 0 0 Z " fill="#92BD73" transform="translate(160,115)"/>
<path d="M0 0 C1.5 1.375 1.5 1.375 3 3 C3 3.66 3 4.32 3 5 C1.02 5 -0.96 5 -3 5 C-2.01 3.35 -1.02 1.7 0 0 Z " fill="#85B963" transform="translate(392,290)"/>
<path d="M0 0 C-1.90401138 1.90401138 -3.33425686 2.93520439 -6.046875 3.19921875 C-8.03233273 3.1886578 -10.0169914 3.09915043 -12 3 C-12 2.67 -12 2.34 -12 2 C-10.37787941 1.47026689 -8.75218416 0.95146893 -7.125 0.4375 C-6.22007812 0.14746094 -5.31515625 -0.14257812 -4.3828125 -0.44140625 C-2 -1 -2 -1 0 0 Z " fill="#ACCF8A" transform="translate(279,286)"/>
<path d="M0 0 C0 0.66 0 1.32 0 2 C-1.62626404 3.38232443 -3.2925002 4.71937515 -5 6 C-5.99 5.34 -6.98 4.68 -8 4 C-2.25 0 -2.25 0 0 0 Z " fill="#8DBA6C" transform="translate(310,268)"/>
<path d="M0 0 C1.2065625 0.0309375 1.2065625 0.0309375 2.4375 0.0625 C2.4375 1.0525 2.4375 2.0425 2.4375 3.0625 C0.4575 4.0525 0.4575 4.0525 -1.5625 5.0625 C-1.5625 4.0725 -1.5625 3.0825 -1.5625 2.0625 C-2.2225 1.7325 -2.8825 1.4025 -3.5625 1.0625 C-2.5625 0.0625 -2.5625 0.0625 0 0 Z " fill="#81B55B" transform="translate(356.5625,144.9375)"/>
<path d="M0 0 C2.97 0.33 5.94 0.66 9 1 C9 1.33 9 1.66 9 2 C6.03 2.66 3.06 3.32 0 4 C0 2.66666667 0 1.33333333 0 0 Z " fill="#80B65E" transform="translate(305,80)"/>
<path d="M0 0 C1.98 1.65 3.96 3.3 6 5 C5.01 6.32 4.02 7.64 3 9 C0 3.375 0 3.375 0 0 Z " fill="#94BE72" transform="translate(39,310)"/>
<path d="M0 0 C0.99 0 1.98 0 3 0 C2.34 2.97 1.68 5.94 1 9 C0.67 9 0.34 9 0 9 C0 6.03 0 3.06 0 0 Z " fill="#89B56B" transform="translate(476,304)"/>
<path d="M0 0 C4.875 4.625 4.875 4.625 6 8 C4.68 7.67 3.36 7.34 2 7 C1.34 4.69 0.68 2.38 0 0 Z " fill="#95BB7B" transform="translate(459,215)"/>
<path d="M0 0 C0.99 0 1.98 0 3 0 C1.25 5.75 1.25 5.75 -1 8 C-0.67 5.36 -0.34 2.72 0 0 Z " fill="#95BE79" transform="translate(365,217)"/>
<path d="M0 0 C0.66 0.33 1.32 0.66 2 1 C1.01 2.485 1.01 2.485 0 4 C-0.66 4 -1.32 4 -2 4 C-2.33 4.66 -2.66 5.32 -3 6 C-3.99 5.34 -4.98 4.68 -6 4 C-4.02 2.68 -2.04 1.36 0 0 Z " fill="#95BD75" transform="translate(86,169)"/>
<path d="M0 0 C7.50769231 -0.36923077 7.50769231 -0.36923077 10 1.5 C10.495 2.2425 10.495 2.2425 11 3 C6.94393835 2.53199289 3.53411321 2.12046792 0 0 Z " fill="#A2C98F" transform="translate(149,151)"/>
<path d="M0 0 C0.625 1.875 0.625 1.875 1 4 C0.34 4.66 -0.32 5.32 -1 6 C-1.99 5.01 -2.98 4.02 -4 3 C-2.68 2.01 -1.36 1.02 0 0 Z " fill="#93C078" transform="translate(165,111)"/>
<path d="M0 0 C0.33 0.99 0.66 1.98 1 3 C-1.97 3 -4.94 3 -8 3 C-5.48696401 0.48696401 -3.51117809 0 0 0 Z " fill="#95C379" transform="translate(211,84)"/>
</svg>
